<svg xmlns="http://www.w3.org/2000/svg" id="Group_88463" viewBox="0 0 6.99 9.297"> <path id="Path_179681" d="M343.451 265.894a9.119 9.119 0 0 1-.679-1.072 6.458 6.458 0 0 1-.679-1.645 3.958 3.958 0 0 1 .027-2.3 3.686 3.686 0 0 1 1.448-1.855 3.629 3.629 0 0 1 2.081-.57 3.557 3.557 0 0 1 2.081.869 3.6 3.6 0 0 1 1.14 2.172 4.413 4.413 0 0 1-.045 1.593 5.981 5.981 0 0 1-.769 1.765 9.879 9.879 0 0 1-.706 1.1c-.866 1.16-1.348 1.807-1.959 1.8-.591-.009-1.04-.625-1.94-1.857z" fill="#4285f4" transform="translate(-341.933 -258.451)"/> <circle id="Ellipse_13835" cx="2.438" cy="2.438" r="2.438" fill="#fff" transform="translate(1.077 .989)"/> <circle id="Ellipse_13836" cx=".85" cy=".85" r=".85" fill="#4285f4" transform="translate(2.73 2.522)"/></svg>