<svg xmlns="http://www.w3.org/2000/svg" fill="none" width="469" height="213" viewBox="0 0 469 213"><rect fill="#fff" width="469" height="213" rx="10"/><path d="M32.286 109.126c-.456 0-.684-.24-.684-.72V96.904c0-.48.228-.72.684-.72.192 0 .342.042.45.126.12.072.228.198.324.378l4.662 8.784 4.644-8.784c.096-.18.198-.306.306-.378.108-.084.264-.126.468-.126.444 0 .666.24.666.72v11.502c0 .48-.228.72-.684.72-.456 0-.684-.24-.684-.72v-9.324l-4.068 7.65a1.03 1.03 0 0 1-.27.342c-.084.06-.21.09-.378.09a.647.647 0 0 1-.396-.108.896.896 0 0 1-.252-.324L32.952 99.1v9.306c0 .48-.222.72-.666.72zm18.422.036c-1.38 0-2.472-.402-3.276-1.206-.804-.816-1.206-1.92-1.206-3.312 0-.9.18-1.692.54-2.376.36-.696.852-1.23 1.476-1.602.636-.384 1.368-.576 2.196-.576 1.188 0 2.118.384 2.79 1.152.672.756 1.008 1.8 1.008 3.132 0 .372-.21.558-.63.558h-5.958c.048.996.336 1.758.864 2.286.528.516 1.26.774 2.196.774.396 0 .798-.048 1.206-.144a3.819 3.819 0 0 0 1.188-.558c.276-.18.504-.216.684-.108a.539.539 0 0 1 .288.504c.012.216-.108.408-.36.576-.396.288-.87.51-1.422.666a5.692 5.692 0 0 1-1.584.234zm-.234-7.992c-.828 0-1.482.258-1.962.774s-.762 1.194-.846 2.034h5.31c-.036-.888-.27-1.578-.702-2.07-.42-.492-1.02-.738-1.8-.738zm9.203 7.992c-.78 0-1.465-.186-2.053-.558-.576-.372-1.026-.894-1.35-1.566-.312-.684-.468-1.488-.468-2.412 0-.936.157-1.74.469-2.412.324-.684.773-1.206 1.35-1.566.587-.372 1.272-.558 2.051-.558.684 0 1.285.15 1.8.45.529.3.919.714 1.17 1.242v-4.86c0-.492.246-.738.739-.738.48 0 .72.246.72.738v11.448c0 .504-.24.756-.72.756s-.72-.252-.72-.756v-.936c-.264.54-.66.966-1.188 1.278-.516.3-1.116.45-1.8.45zm.306-1.17c.816 0 1.47-.288 1.962-.864.492-.588.737-1.422.737-2.502 0-1.092-.245-1.926-.738-2.502-.492-.576-1.146-.864-1.962-.864-.828 0-1.487.288-1.98.864-.48.576-.72 1.41-.72 2.502 0 1.08.24 1.914.72 2.502.492.576 1.152.864 1.98.864zm7.578-9.846c-.636 0-.954-.3-.954-.9 0-.588.318-.882.954-.882.636 0 .954.294.954.882 0 .6-.318.9-.954.9zm0 10.944c-.48 0-.72-.264-.72-.792v-7.362c0-.516.24-.774.72-.774.492 0 .738.258.738.774v7.362c0 .528-.246.792-.738.792zm4.471-.09c-.54 0-.81-.27-.81-.81V97.12c0-.54.27-.81.81-.81h4.266c1.308 0 2.316.294 3.024.882.72.576 1.08 1.386 1.08 2.43 0 .696-.18 1.29-.54 1.782-.36.492-.858.852-1.494 1.08.732.192 1.302.546 1.71 1.062.42.516.63 1.17.63 1.962 0 1.128-.366 1.992-1.098 2.592-.732.6-1.764.9-3.096.9h-4.482zm.63-7.02h3.42c1.908 0 2.862-.744 2.862-2.232 0-1.5-.954-2.25-2.862-2.25h-3.42v4.482zm0 5.832h3.708c1.92 0 2.88-.774 2.88-2.322s-.96-2.322-2.88-2.322h-3.708v4.644zm13.622 1.35c-2.1 0-3.15-1.158-3.15-3.474v-4.824c0-.492.24-.738.72-.738.492 0 .738.246.738.738v4.806c0 .78.156 1.356.468 1.728.324.372.828.558 1.512.558.744 0 1.35-.246 1.818-.738.468-.504.702-1.17.702-1.998v-4.356c0-.492.246-.738.738-.738.48 0 .72.246.72.738v7.506c0 .504-.234.756-.702.756-.48 0-.72-.252-.72-.756v-.846a2.952 2.952 0 0 1-1.17 1.224c-.492.276-1.05.414-1.674.414zm10.324 0c-.78 0-1.464-.186-2.052-.558-.576-.372-1.026-.894-1.35-1.566-.312-.684-.468-1.488-.468-2.412 0-.936.156-1.74.468-2.412.324-.684.774-1.206 1.35-1.566.588-.372 1.272-.558 2.052-.558.684 0 1.284.15 1.8.45.528.3.918.714 1.17 1.242v-4.86c0-.492.246-.738.738-.738.48 0 .72.246.72.738v11.448c0 .504-.24.756-.72.756s-.72-.252-.72-.756v-.936c-.264.54-.66.966-1.188 1.278-.516.3-1.116.45-1.8.45zm.306-1.17c.816 0 1.47-.288 1.962-.864.492-.588.738-1.422.738-2.502 0-1.092-.246-1.926-.738-2.502-.492-.576-1.146-.864-1.962-.864-.828 0-1.488.288-1.98.864-.48.576-.72 1.41-.72 2.502 0 1.08.24 1.914.72 2.502.492.576 1.152.864 1.98.864zm10.188 1.17c-.78 0-1.464-.186-2.052-.558-.576-.372-1.026-.894-1.35-1.566-.312-.684-.468-1.488-.468-2.412 0-.936.156-1.74.468-2.412.324-.684.774-1.206 1.35-1.566.588-.372 1.272-.558 2.052-.558.684 0 1.284.15 1.8.45.528.3.918.714 1.17 1.242v-4.86c0-.492.246-.738.738-.738.48 0 .72.246.72.738v11.448c0 .504-.24.756-.72.756s-.72-.252-.72-.756v-.936c-.264.54-.66.966-1.188 1.278-.516.3-1.116.45-1.8.45zm.306-1.17c.816 0 1.47-.288 1.962-.864.492-.588.738-1.422.738-2.502 0-1.092-.246-1.926-.738-2.502-.492-.576-1.146-.864-1.962-.864-.828 0-1.488.288-1.98.864-.48.576-.72 1.41-.72 2.502 0 1.08.24 1.914.72 2.502.492.576 1.152.864 1.98.864zm8.802 4.374c-.276 0-.462-.108-.558-.324-.096-.204-.09-.438.018-.702l1.098-2.484-3.312-7.704c-.12-.276-.126-.516-.018-.72.12-.204.342-.306.666-.306.336 0 .582.192.738.576l2.718 6.642 2.736-6.642c.096-.216.198-.366.306-.45.108-.084.264-.126.468-.126.276 0 .462.102.558.306.096.204.09.438-.018.702l-4.608 10.656c-.096.216-.204.366-.324.45-.108.084-.264.126-.468.126zm12.663-14.22c-.636 0-.954-.3-.954-.9 0-.588.318-.882.954-.882.636 0 .954.294.954.882 0 .6-.318.9-.954.9zm0 10.944c-.48 0-.72-.264-.72-.792v-7.362c0-.516.24-.774.72-.774.492 0 .738.258.738.774v7.362c0 .528-.246.792-.738.792zm6.416.072c-.54 0-1.086-.066-1.638-.198a5.058 5.058 0 0 1-1.512-.684c-.216-.132-.324-.3-.324-.504a.648.648 0 0 1 .252-.504c.156-.12.354-.12.594 0 .468.288.918.492 1.35.612.444.108.882.162 1.314.162.684 0 1.2-.126 1.548-.378a1.2 1.2 0 0 0 .522-1.026c0-.336-.114-.6-.342-.792-.228-.204-.588-.36-1.08-.468l-1.638-.36c-1.488-.324-2.232-1.092-2.232-2.304 0-.792.312-1.428.936-1.908.636-.48 1.464-.72 2.484-.72.516 0 1.014.072 1.494.216.48.132.912.348 1.296.648.204.144.294.318.27.522a.67.67 0 0 1-.288.486c-.156.108-.348.09-.576-.054a3.982 3.982 0 0 0-1.098-.522 3.563 3.563 0 0 0-1.098-.18c-.672 0-1.182.132-1.53.396a1.248 1.248 0 0 0-.522 1.044c0 .672.444 1.104 1.332 1.296l1.638.342c.768.168 1.35.438 1.746.81.396.36.594.852.594 1.476 0 .804-.318 1.44-.954 1.908-.636.456-1.482.684-2.538.684zm11.074-.036c-.48 0-.72-.252-.72-.756V96.922c0-.492.24-.738.72-.738.492 0 .738.246.738.738v4.77a2.81 2.81 0 0 1 1.206-1.188 3.75 3.75 0 0 1 1.764-.414c2.076 0 3.114 1.152 3.114 3.456v4.824c0 .504-.24.756-.72.756-.492 0-.738-.252-.738-.756v-4.734c0-.816-.162-1.41-.486-1.782-.312-.384-.816-.576-1.512-.576-.804 0-1.446.252-1.926.756-.468.492-.702 1.152-.702 1.98v4.356c0 .504-.246.756-.738.756zm13.453.036c-1.38 0-2.472-.402-3.276-1.206-.804-.816-1.206-1.92-1.206-3.312 0-.9.18-1.692.54-2.376.36-.696.852-1.23 1.476-1.602.636-.384 1.368-.576 2.196-.576 1.188 0 2.118.384 2.79 1.152.672.756 1.008 1.8 1.008 3.132 0 .372-.21.558-.63.558h-5.958c.048.996.336 1.758.864 2.286.528.516 1.26.774 2.196.774.396 0 .798-.048 1.206-.144a3.819 3.819 0 0 0 1.188-.558c.276-.18.504-.216.684-.108a.539.539 0 0 1 .288.504c.012.216-.108.408-.36.576-.396.288-.87.51-1.422.666a5.692 5.692 0 0 1-1.584.234zm-.234-7.992c-.828 0-1.482.258-1.962.774s-.762 1.194-.846 2.034h5.31c-.036-.888-.27-1.578-.702-2.07-.42-.492-1.02-.738-1.8-.738zm6.61 7.956c-.492 0-.738-.252-.738-.756v-7.506c0-.492.234-.738.702-.738.48 0 .72.246.72.738v.954c.24-.552.612-.972 1.116-1.26.504-.3 1.104-.462 1.8-.486.384-.036.588.156.612.576.036.42-.18.654-.648.702l-.288.036c-.828.072-1.458.336-1.89.792-.432.444-.648 1.056-.648 1.836v4.356c0 .504-.246.756-.738.756zm9.55.036c-1.38 0-2.472-.402-3.276-1.206-.804-.816-1.206-1.92-1.206-3.312 0-.9.18-1.692.54-2.376.36-.696.852-1.23 1.476-1.602.636-.384 1.368-.576 2.196-.576 1.188 0 2.118.384 2.79 1.152.672.756 1.008 1.8 1.008 3.132 0 .372-.21.558-.63.558h-5.958c.048.996.336 1.758.864 2.286.528.516 1.26.774 2.196.774.396 0 .798-.048 1.206-.144a3.819 3.819 0 0 0 1.188-.558c.276-.18.504-.216.684-.108a.539.539 0 0 1 .288.504c.012.216-.108.408-.36.576-.396.288-.87.51-1.422.666a5.692 5.692 0 0 1-1.584.234zm-.234-7.992c-.828 0-1.482.258-1.962.774s-.762 1.194-.846 2.034h5.31c-.036-.888-.27-1.578-.702-2.07-.42-.492-1.02-.738-1.8-.738zm14.022 7.992c-1.032 0-1.806-.27-2.322-.81-.516-.552-.774-1.344-.774-2.376v-4.59h-1.206c-.42 0-.63-.192-.63-.576 0-.372.21-.558.63-.558h1.206v-2.07c0-.492.246-.738.738-.738.48 0 .72.246.72.738v2.07h2.268c.42 0 .63.186.63.558 0 .384-.21.576-.63.576h-2.268v4.446c0 .684.144 1.206.432 1.566.288.348.756.522 1.404.522.228 0 .42-.024.576-.072a1.43 1.43 0 0 1 .414-.072.294.294 0 0 1 .27.108c.072.084.108.228.108.432 0 .144-.03.276-.09.396a.434.434 0 0 1-.27.252c-.144.048-.336.09-.576.126a3.075 3.075 0 0 1-.63.072zm6.331 0c-.852 0-1.59-.186-2.214-.558a3.83 3.83 0 0 1-1.458-1.566c-.336-.684-.504-1.488-.504-2.412 0-.924.168-1.722.504-2.394a3.805 3.805 0 0 1 1.458-1.584c.624-.372 1.362-.558 2.214-.558.84 0 1.572.186 2.196.558.636.372 1.122.9 1.458 1.584.348.672.522 1.47.522 2.394 0 .924-.174 1.728-.522 2.412a3.679 3.679 0 0 1-1.458 1.566c-.624.372-1.356.558-2.196.558zm0-1.17c.816 0 1.47-.288 1.962-.864.492-.588.738-1.422.738-2.502 0-1.092-.246-1.926-.738-2.502-.492-.576-1.146-.864-1.962-.864-.828 0-1.488.288-1.98.864-.48.576-.72 1.41-.72 2.502 0 1.08.24 1.914.72 2.502.492.576 1.152.864 1.98.864zm15.399 1.188c-.804 0-1.59-.09-2.358-.27-.756-.18-1.416-.45-1.98-.81-.276-.18-.444-.402-.504-.666s-.042-.51.054-.738a.877.877 0 0 1 .486-.486c.228-.096.486-.054.774.126a6.15 6.15 0 0 0 1.674.684 7.77 7.77 0 0 0 1.854.216c.948 0 1.638-.156 2.07-.468.432-.324.648-.738.648-1.242 0-.42-.156-.75-.468-.99-.3-.24-.822-.438-1.566-.594l-1.98-.414c-2.256-.48-3.384-1.638-3.384-3.474 0-.792.21-1.482.63-2.07.42-.588 1.002-1.044 1.746-1.368.744-.324 1.602-.486 2.574-.486.72 0 1.404.09 2.052.27a5.94 5.94 0 0 1 1.746.792c.24.168.384.378.432.63.048.24.018.468-.09.684a.899.899 0 0 1-.522.432c-.228.072-.498.018-.81-.162a5.124 5.124 0 0 0-1.35-.54 6.395 6.395 0 0 0-1.476-.162c-.828 0-1.476.174-1.944.522-.468.348-.702.804-.702 1.368 0 .432.144.78.432 1.044.288.252.78.45 1.476.594l1.962.414c1.188.252 2.07.648 2.646 1.188.588.54.882 1.26.882 2.16 0 .756-.204 1.422-.612 1.998-.408.576-.99 1.026-1.746 1.35-.744.312-1.626.468-2.646.468zm7.881-10.782c-.42 0-.75-.102-.99-.306-.228-.216-.342-.51-.342-.882 0-.384.114-.678.342-.882.24-.204.57-.306.99-.306.888 0 1.332.396 1.332 1.188 0 .792-.444 1.188-1.332 1.188zm0 10.728c-.36 0-.636-.108-.828-.324-.192-.216-.288-.516-.288-.9v-6.606c0-.816.372-1.224 1.116-1.224.756 0 1.134.408 1.134 1.224v6.606c0 .384-.096.684-.288.9-.192.216-.474.324-.846.324zm4.624.018c-.744 0-1.116-.384-1.116-1.152v-6.804c0-.756.366-1.134 1.098-1.134.732 0 1.098.378 1.098 1.134v.36c.264-.48.63-.852 1.098-1.116.468-.276 1.008-.414 1.62-.414 1.32 0 2.184.576 2.592 1.728a3.01 3.01 0 0 1 1.188-1.26c.516-.312 1.104-.468 1.764-.468 1.98 0 2.97 1.206 2.97 3.618v4.356c0 .768-.378 1.152-1.134 1.152-.744 0-1.116-.384-1.116-1.152v-4.266c0-.672-.114-1.164-.342-1.476-.216-.312-.588-.468-1.116-.468-.588 0-1.05.21-1.386.63-.336.408-.504.978-.504 1.71v3.87c0 .768-.372 1.152-1.116 1.152-.756 0-1.134-.384-1.134-1.152v-4.266c0-.672-.114-1.164-.342-1.476-.216-.312-.582-.468-1.098-.468-.588 0-1.05.21-1.386.63-.336.408-.504.978-.504 1.71v3.87c0 .768-.378 1.152-1.134 1.152zm15.75 3.24c-.744 0-1.116-.378-1.116-1.134v-10.062c0-.756.366-1.134 1.098-1.134.744 0 1.116.378 1.116 1.134v.378c.252-.468.63-.84 1.134-1.116.504-.288 1.08-.432 1.728-.432.768 0 1.44.186 2.016.558.588.372 1.044.9 1.368 1.584.324.672.486 1.482.486 2.43 0 .936-.162 1.752-.486 2.448-.324.684-.774 1.212-1.35 1.584-.576.372-1.254.558-2.034.558a3.59 3.59 0 0 1-1.692-.396 2.938 2.938 0 0 1-1.134-1.098v3.564c0 .756-.378 1.134-1.134 1.134zm3.33-4.914c.672 0 1.212-.24 1.62-.72.408-.492.612-1.212.612-2.16 0-.96-.204-1.674-.612-2.142-.408-.48-.948-.72-1.62-.72-.672 0-1.212.24-1.62.72-.408.468-.612 1.182-.612 2.142 0 .948.204 1.668.612 2.16.408.48.948.72 1.62.72zm9.352 1.71c-2.004 0-3.006-1.122-3.006-3.366V97.3c0-.756.372-1.134 1.116-1.134.756 0 1.134.378 1.134 1.134v8.406c0 1.08.45 1.62 1.35 1.62h.27l.252-.036c.168-.024.282.024.342.144.06.108.09.336.09.684 0 .3-.06.534-.18.702-.12.168-.318.27-.594.306-.252.036-.51.054-.774.054zm3.859-10.782c-.42 0-.75-.102-.99-.306-.228-.216-.342-.51-.342-.882 0-.384.114-.678.342-.882.24-.204.57-.306.99-.306.888 0 1.332.396 1.332 1.188 0 .792-.444 1.188-1.332 1.188zm0 10.728c-.36 0-.636-.108-.828-.324-.192-.216-.288-.516-.288-.9v-6.606c0-.816.372-1.224 1.116-1.224.756 0 1.134.408 1.134 1.224v6.606c0 .384-.096.684-.288.9-.192.216-.474.324-.846.324zm5.199.018c-.756 0-1.134-.384-1.134-1.152v-6.102h-.828c-.6 0-.9-.282-.9-.846 0-.564.3-.846.9-.846h.828v-.018c0-1.236.312-2.16.936-2.772.624-.624 1.524-.99 2.7-1.098l.612-.054c.312-.024.54.042.684.198a.818.818 0 0 1 .216.576.95.95 0 0 1-.162.594.697.697 0 0 1-.522.288l-.252.018c-.684.048-1.182.222-1.494.522-.312.3-.468.756-.468 1.368v.378h1.53c.6 0 .9.282.9.846 0 .564-.3.846-.9.846h-1.53v6.102c0 .768-.372 1.152-1.116 1.152zm6.885 3.24c-.408 0-.69-.15-.846-.45-.156-.3-.15-.642.018-1.026l1.026-2.268-3.078-7.092c-.168-.396-.168-.744 0-1.044.168-.3.498-.45.99-.45.276 0 .498.066.666.198.168.12.318.354.45.702l2.16 5.4 2.214-5.418c.132-.336.288-.564.468-.684.18-.132.42-.198.72-.198.384 0 .654.15.81.45.156.3.15.642-.018 1.026l-4.374 9.99c-.156.336-.324.564-.504.684-.18.12-.414.18-.702.18zm14.272-.018c-.276 0-.462-.108-.558-.324-.096-.204-.09-.438.018-.702l1.098-2.484-3.312-7.704c-.12-.276-.126-.516-.018-.72.12-.204.342-.306.666-.306.336 0 .582.192.738.576l2.718 6.642 2.736-6.642c.096-.216.198-.366.306-.45.108-.084.264-.126.468-.126.276 0 .462.102.558.306.096.204.09.438-.018.702l-4.608 10.656c-.096.216-.204.366-.324.45-.108.084-.264.126-.468.126zm10.815-3.204c-.852 0-1.59-.186-2.214-.558a3.83 3.83 0 0 1-1.458-1.566c-.336-.684-.504-1.488-.504-2.412 0-.924.168-1.722.504-2.394a3.805 3.805 0 0 1 1.458-1.584c.624-.372 1.362-.558 2.214-.558.84 0 1.572.186 2.196.558.636.372 1.122.9 1.458 1.584.348.672.522 1.47.522 2.394 0 .924-.174 1.728-.522 2.412a3.679 3.679 0 0 1-1.458 1.566c-.624.372-1.356.558-2.196.558zm0-1.17c.816 0 1.47-.288 1.962-.864.492-.588.738-1.422.738-2.502 0-1.092-.246-1.926-.738-2.502-.492-.576-1.146-.864-1.962-.864-.828 0-1.488.288-1.98.864-.48.576-.72 1.41-.72 2.502 0 1.08.24 1.914.72 2.502.492.576 1.152.864 1.98.864zm9.462 1.17c-2.1 0-3.15-1.158-3.15-3.474v-4.824c0-.492.24-.738.72-.738.492 0 .738.246.738.738v4.806c0 .78.156 1.356.468 1.728.324.372.828.558 1.512.558.744 0 1.35-.246 1.818-.738.468-.504.702-1.17.702-1.998v-4.356c0-.492.246-.738.738-.738.48 0 .72.246.72.738v7.506c0 .504-.234.756-.702.756-.48 0-.72-.252-.72-.756v-.846a2.952 2.952 0 0 1-1.17 1.224c-.492.276-1.05.414-1.674.414zm7.731-.036c-.492 0-.738-.252-.738-.756v-7.506c0-.492.234-.738.702-.738.48 0 .72.246.72.738v.954c.24-.552.612-.972 1.116-1.26.504-.3 1.104-.462 1.8-.486.384-.036.588.156.612.576.036.42-.18.654-.648.702l-.288.036c-.828.072-1.458.336-1.89.792-.432.444-.648 1.056-.648 1.836v4.356c0 .504-.246.756-.738.756zm-276.1 22.036c-.54 0-1.086-.066-1.638-.198a5.058 5.058 0 0 1-1.512-.684c-.216-.132-.324-.3-.324-.504a.648.648 0 0 1 .252-.504c.156-.12.354-.12.594 0 .468.288.918.492 1.35.612.444.108.882.162 1.314.162.684 0 1.2-.126 1.548-.378a1.2 1.2 0 0 0 .522-1.026c0-.336-.114-.6-.342-.792-.228-.204-.588-.36-1.08-.468l-1.638-.36c-1.488-.324-2.232-1.092-2.232-2.304 0-.792.312-1.428.936-1.908.636-.48 1.464-.72 2.484-.72.516 0 1.014.072 1.494.216.48.132.912.348 1.296.648.204.144.294.318.27.522a.67.67 0 0 1-.288.486c-.156.108-.348.09-.576-.054a3.982 3.982 0 0 0-1.098-.522 3.563 3.563 0 0 0-1.098-.18c-.672 0-1.182.132-1.53.396a1.248 1.248 0 0 0-.522 1.044c0 .672.444 1.104 1.332 1.296l1.638.342c.768.168 1.35.438 1.746.81.396.36.594.852.594 1.476 0 .804-.318 1.44-.954 1.908-.636.456-1.482.684-2.538.684zm8.81 0c-2.1 0-3.15-1.158-3.15-3.474v-4.824c0-.492.24-.738.72-.738.492 0 .738.246.738.738v4.806c0 .78.156 1.356.468 1.728.324.372.828.558 1.512.558.744 0 1.35-.246 1.818-.738.468-.504.702-1.17.702-1.998v-4.356c0-.492.246-.738.738-.738.48 0 .72.246.72.738v7.506c0 .504-.234.756-.702.756-.48 0-.72-.252-.72-.756v-.846a2.952 2.952 0 0 1-1.17 1.224c-.492.276-1.05.414-1.674.414zm7.732-.036c-.492 0-.738-.252-.738-.756v-7.506c0-.492.234-.738.702-.738.48 0 .72.246.72.738v.954c.24-.552.612-.972 1.116-1.26.504-.3 1.104-.462 1.8-.486.384-.036.588.156.612.576.036.42-.18.654-.648.702l-.288.036c-.828.072-1.458.336-1.89.792-.432.444-.648 1.056-.648 1.836v4.356c0 .504-.246.756-.738.756zm9.478 3.276a7.55 7.55 0 0 1-1.872-.234 5.128 5.128 0 0 1-1.638-.702c-.18-.108-.288-.24-.324-.396a.692.692 0 0 1 .072-.432.647.647 0 0 1 .306-.288.503.503 0 0 1 .45.036c.528.324 1.032.546 1.512.666s.954.18 1.422.18c1.728 0 2.592-.888 2.592-2.664v-1.548c-.252.552-.648.99-1.188 1.314-.528.312-1.134.468-1.818.468-.804 0-1.5-.186-2.088-.558a3.759 3.759 0 0 1-1.368-1.53c-.312-.66-.468-1.422-.468-2.286 0-.864.156-1.62.468-2.268.324-.66.78-1.17 1.368-1.53.588-.36 1.284-.54 2.088-.54.684 0 1.29.15 1.818.45.528.3.918.72 1.17 1.26v-.936c0-.492.24-.738.72-.738s.72.246.72.738v7.506c0 1.344-.336 2.352-1.008 3.024-.66.672-1.638 1.008-2.934 1.008zm-.216-4.788c.84 0 1.506-.288 1.998-.864.492-.576.738-1.35.738-2.322s-.246-1.74-.738-2.304c-.492-.576-1.158-.864-1.998-.864-.828 0-1.488.288-1.98.864-.492.564-.738 1.332-.738 2.304 0 .972.246 1.746.738 2.322.492.576 1.152.864 1.98.864zm10.834 1.548c-1.38 0-2.472-.402-3.276-1.206-.804-.816-1.206-1.92-1.206-3.312 0-.9.18-1.692.54-2.376.36-.696.852-1.23 1.476-1.602.636-.384 1.368-.576 2.196-.576 1.188 0 2.118.384 2.79 1.152.672.756 1.008 1.8 1.008 3.132 0 .372-.21.558-.63.558h-5.958c.048.996.336 1.758.864 2.286.528.516 1.26.774 2.196.774.396 0 .798-.048 1.206-.144a3.819 3.819 0 0 0 1.188-.558c.276-.18.504-.216.684-.108a.539.539 0 0 1 .288.504c.012.216-.108.408-.36.576-.396.288-.87.51-1.422.666a5.692 5.692 0 0 1-1.584.234zm-.234-7.992c-.828 0-1.482.258-1.962.774s-.762 1.194-.846 2.034h5.31c-.036-.888-.27-1.578-.702-2.07-.42-.492-1.02-.738-1.8-.738zm6.61 7.956c-.492 0-.737-.252-.737-.756v-7.506c0-.492.234-.738.702-.738.48 0 .72.246.72.738v.954c.24-.552.611-.972 1.115-1.26.504-.3 1.105-.462 1.8-.486.385-.036.588.156.612.576.036.42-.18.654-.648.702l-.287.036c-.829.072-1.459.336-1.89.792-.433.444-.648 1.056-.648 1.836v4.356c0 .504-.246.756-.738.756zm8.203 3.24c-.276 0-.462-.108-.558-.324-.096-.204-.09-.438.018-.702l1.098-2.484-3.312-7.704c-.12-.276-.126-.516-.018-.72.12-.204.342-.306.666-.306.336 0 .582.192.738.576l2.718 6.642 2.736-6.642c.096-.216.198-.366.306-.45.108-.084.264-.126.468-.126.276 0 .462.102.558.306.096.204.09.438-.018.702l-4.608 10.656c-.096.216-.204.366-.324.45-.108.084-.264.126-.468.126zm12.716-14.22c-.636 0-.954-.3-.954-.9 0-.588.318-.882.954-.882.648 0 .972.294.972.882 0 .6-.324.9-.972.9zm-2.448 14.292c-.3.012-.504-.072-.612-.252a.617.617 0 0 1-.072-.576c.072-.192.228-.294.468-.306.66-.036 1.146-.216 1.458-.54.324-.312.486-.81.486-1.494v-8.406c0-.492.246-.738.738-.738.48 0 .72.246.72.738v8.298c0 1.104-.276 1.914-.828 2.43-.54.516-1.326.798-2.358.846zm9.564-3.276c-.852 0-1.59-.186-2.214-.558a3.83 3.83 0 0 1-1.458-1.566c-.336-.684-.504-1.488-.504-2.412 0-.924.168-1.722.504-2.394a3.805 3.805 0 0 1 1.458-1.584c.624-.372 1.362-.558 2.214-.558.84 0 1.572.186 2.196.558.636.372 1.122.9 1.458 1.584.348.672.522 1.47.522 2.394 0 .924-.174 1.728-.522 2.412a3.679 3.679 0 0 1-1.458 1.566c-.624.372-1.356.558-2.196.558zm0-1.17c.816 0 1.47-.288 1.962-.864.492-.588.738-1.422.738-2.502 0-1.092-.246-1.926-.738-2.502-.492-.576-1.146-.864-1.962-.864-.828 0-1.488.288-1.98.864-.48.576-.72 1.41-.72 2.502 0 1.08.24 1.914.72 2.502.492.576 1.152.864 1.98.864zm9.462 1.17c-2.1 0-3.15-1.158-3.15-3.474v-4.824c0-.492.24-.738.72-.738.492 0 .738.246.738.738v4.806c0 .78.156 1.356.468 1.728.324.372.828.558 1.512.558.744 0 1.35-.246 1.818-.738.468-.504.702-1.17.702-1.998v-4.356c0-.492.246-.738.738-.738.48 0 .72.246.72.738v7.506c0 .504-.234.756-.702.756-.48 0-.72-.252-.72-.756v-.846a2.952 2.952 0 0 1-1.17 1.224c-.492.276-1.05.414-1.674.414zm7.732-.036c-.492 0-.738-.252-.738-.756v-7.506c0-.492.234-.738.702-.738.48 0 .72.246.72.738v.954c.24-.552.612-.972 1.116-1.26.504-.3 1.104-.462 1.8-.486.384-.036.588.156.612.576.036.42-.18.654-.648.702l-.288.036c-.828.072-1.458.336-1.89.792-.432.444-.648 1.056-.648 1.836v4.356c0 .504-.246.756-.738.756zm6.433 0c-.48 0-.72-.252-.72-.756v-7.506c0-.492.234-.738.702-.738.48 0 .72.246.72.738v.882a2.847 2.847 0 0 1 1.224-1.242c.528-.276 1.122-.414 1.782-.414 2.076 0 3.114 1.152 3.114 3.456v4.824c0 .504-.24.756-.72.756-.492 0-.738-.252-.738-.756v-4.734c0-.816-.162-1.41-.486-1.782-.312-.384-.816-.576-1.512-.576-.804 0-1.446.252-1.926.756-.468.492-.702 1.152-.702 1.98v4.356c0 .504-.246.756-.738.756zm13.453.036c-1.38 0-2.472-.402-3.276-1.206-.804-.816-1.206-1.92-1.206-3.312 0-.9.18-1.692.54-2.376.36-.696.852-1.23 1.476-1.602.636-.384 1.368-.576 2.196-.576 1.188 0 2.118.384 2.79 1.152.672.756 1.008 1.8 1.008 3.132 0 .372-.21.558-.63.558h-5.958c.048.996.336 1.758.864 2.286.528.516 1.26.774 2.196.774.396 0 .798-.048 1.206-.144a3.819 3.819 0 0 0 1.188-.558c.276-.18.504-.216.684-.108a.539.539 0 0 1 .288.504c.012.216-.108.408-.36.576-.396.288-.87.51-1.422.666a5.692 5.692 0 0 1-1.584.234zm-.234-7.992c-.828 0-1.482.258-1.962.774s-.762 1.194-.846 2.034h5.31c-.036-.888-.27-1.578-.702-2.07-.42-.492-1.02-.738-1.8-.738zm7.71 11.196c-.276 0-.462-.108-.558-.324-.096-.204-.09-.438.018-.702l1.098-2.484-3.312-7.704c-.12-.276-.126-.516-.018-.72.12-.204.342-.306.666-.306.336 0 .582.192.738.576l2.718 6.642 2.736-6.642c.096-.216.198-.366.306-.45.108-.084.264-.126.468-.126.276 0 .462.102.558.306.096.204.09.438-.018.702l-4.608 10.656c-.096.216-.204.366-.324.45-.108.084-.264.126-.468.126zM37.8 51.192c-.816 0-1.376-.432-1.68-1.296l-5.016-14.184c-.176-.512-.144-.944.096-1.296.256-.352.68-.528 1.272-.528.432 0 .768.104 1.008.312.24.192.432.504.576.936l3.84 11.424 4.032-11.4c.304-.848.816-1.272 1.536-1.272.384 0 .688.104.912.312.224.208.416.536.576.984l3.96 11.544 3.96-11.592c.144-.416.336-.728.576-.936.24-.208.568-.312.984-.312.512 0 .888.176 1.128.528.24.352.272.784.096 1.296L50.592 49.92c-.16.432-.368.752-.624.96-.256.208-.6.312-1.032.312-.432 0-.776-.104-1.032-.312-.256-.208-.464-.536-.624-.984l-3.912-11.112-3.936 11.136c-.16.432-.368.752-.624.96-.24.208-.576.312-1.008.312zm24.307.048c-1.216 0-2.272-.248-3.168-.744a5.204 5.204 0 0 1-2.088-2.112c-.496-.928-.744-2.016-.744-3.264 0-1.248.248-2.328.744-3.24a5.204 5.204 0 0 1 2.088-2.112c.896-.496 1.952-.744 3.168-.744 1.216 0 2.272.248 3.168.744a5.204 5.204 0 0 1 2.088 2.112c.496.912.744 1.992.744 3.24 0 1.248-.248 2.336-.744 3.264a5.204 5.204 0 0 1-2.088 2.112c-.896.496-1.952.744-3.168.744zm0-2.28c.896 0 1.616-.32 2.16-.96.544-.656.816-1.616.816-2.88 0-1.28-.272-2.232-.816-2.856-.544-.64-1.264-.96-2.16-.96-.896 0-1.616.32-2.16.96-.544.624-.816 1.576-.816 2.856 0 1.264.272 2.224.816 2.88.544.64 1.264.96 2.16.96zm10.012 2.232c-1.024 0-1.536-.512-1.536-1.536v-9.072c0-1.008.488-1.512 1.464-1.512s1.464.504 1.464 1.512v.744c.576-1.376 1.808-2.144 3.696-2.304.688-.08 1.072.312 1.152 1.176.08.848-.336 1.32-1.248 1.416l-.528.048c-1.968.192-2.952 1.2-2.952 3.024v4.968c0 1.024-.504 1.536-1.512 1.536zm9.399 0c-1.024 0-1.536-.512-1.536-1.536v-9.072c0-1.008.488-1.512 1.464-1.512s1.464.504 1.464 1.512v.744c.576-1.376 1.808-2.144 3.696-2.304.688-.08 1.072.312 1.152 1.176.08.848-.336 1.32-1.248 1.416l-.528.048c-1.968.192-2.952 1.2-2.952 3.024v4.968c0 1.024-.504 1.536-1.512 1.536zm9.35-14.328c-.56 0-1-.136-1.32-.408-.304-.288-.456-.68-.456-1.176 0-.512.152-.904.456-1.176.32-.272.76-.408 1.32-.408 1.184 0 1.776.528 1.776 1.584s-.592 1.584-1.776 1.584zm0 14.304c-.48 0-.848-.144-1.104-.432-.256-.288-.384-.688-.384-1.2v-8.808c0-1.088.496-1.632 1.488-1.632 1.008 0 1.512.544 1.512 1.632v8.808c0 .512-.128.912-.384 1.2-.256.288-.632.432-1.128.432zm10.414.072c-1.328 0-2.472-.248-3.432-.744a5.366 5.366 0 0 1-2.232-2.112c-.512-.912-.768-1.992-.768-3.24 0-1.216.248-2.28.744-3.192a5.581 5.581 0 0 1 2.088-2.136c.895-.528 1.912-.792 3.048-.792 1.664 0 2.976.528 3.936 1.584.976 1.056 1.464 2.496 1.464 4.32 0 .592-.384.888-1.152.888H97.73c.224 2.096 1.423 3.144 3.6 3.144.416 0 .88-.048 1.392-.144a5.368 5.368 0 0 0 1.488-.552c.416-.24.768-.312 1.056-.216.288.08.488.248.6.504.127.256.144.544.048.864-.08.304-.304.568-.672.792a6.438 6.438 0 0 1-1.944.792c-.72.16-1.392.24-2.016.24zm-.432-10.176c-.88 0-1.593.272-2.136.816-.544.544-.873 1.28-.984 2.208h5.904c-.064-.976-.336-1.72-.816-2.232-.464-.528-1.12-.792-1.968-.792zm12.167 10.176c-1.024 0-1.928-.248-2.712-.744-.768-.496-1.368-1.2-1.8-2.112-.432-.928-.648-2.016-.648-3.264 0-1.264.216-2.344.648-3.24.432-.912 1.032-1.616 1.8-2.112.784-.496 1.688-.744 2.712-.744.832 0 1.584.184 2.256.552.672.368 1.176.856 1.512 1.464V35.4c0-1.008.496-1.512 1.488-1.512 1.008 0 1.512.504 1.512 1.512v14.256c0 1.024-.496 1.536-1.488 1.536s-1.488-.512-1.488-1.536v-.504c-.336.64-.84 1.152-1.512 1.536-.672.368-1.432.552-2.28.552zm.84-2.28c.896 0 1.616-.32 2.16-.96.544-.656.816-1.616.816-2.88 0-1.28-.272-2.232-.816-2.856-.544-.64-1.264-.96-2.16-.96-.896 0-1.616.32-2.16.96-.544.624-.816 1.576-.816 2.856 0 1.264.272 2.224.816 2.88.544.64 1.264.96 2.16.96zm19.419 2.28c-.848 0-1.608-.16-2.28-.48a4.133 4.133 0 0 1-1.56-1.344 3.376 3.376 0 0 1-.552-1.896c0-.864.224-1.544.672-2.04.448-.512 1.176-.88 2.184-1.104 1.008-.224 2.36-.336 4.056-.336h.84v-.504c0-.8-.176-1.376-.528-1.728-.352-.352-.944-.528-1.776-.528-.464 0-.968.056-1.512.168a8.057 8.057 0 0 0-1.68.576c-.384.176-.704.2-.96.072a1.123 1.123 0 0 1-.528-.648 1.486 1.486 0 0 1 .048-.912c.128-.304.376-.528.744-.672.736-.304 1.44-.52 2.112-.648a10.32 10.32 0 0 1 1.872-.192c1.712 0 2.984.4 3.816 1.2.832.784 1.248 2.008 1.248 3.672v5.76c0 1.024-.464 1.536-1.392 1.536-.944 0-1.416-.512-1.416-1.536v-.528a3.344 3.344 0 0 1-1.296 1.56c-.592.368-1.296.552-2.112.552zm.624-2.064c.784 0 1.432-.272 1.944-.816.528-.544.792-1.232.792-2.064v-.528h-.816c-1.504 0-2.552.12-3.144.36-.576.224-.864.64-.864 1.248 0 .528.184.96.552 1.296.368.336.88.504 1.536.504zm15.405 2.064c-.864 0-1.632-.184-2.304-.552-.672-.384-1.176-.896-1.512-1.536v.504c0 1.024-.488 1.536-1.464 1.536-.992 0-1.488-.512-1.488-1.536V35.4c0-1.008.496-1.512 1.488-1.512 1.008 0 1.512.504 1.512 1.512v5.592c.352-.592.856-1.064 1.512-1.416.672-.368 1.424-.552 2.256-.552 1.04 0 1.944.248 2.712.744.768.496 1.368 1.2 1.8 2.112.432.896.648 1.976.648 3.24 0 1.248-.216 2.336-.648 3.264-.432.912-1.04 1.616-1.824 2.112-.768.496-1.664.744-2.688.744zm-.84-2.28c.896 0 1.616-.32 2.16-.96.544-.656.816-1.616.816-2.88 0-1.28-.272-2.232-.816-2.856-.544-.64-1.264-.96-2.16-.96-.896 0-1.616.32-2.16.96-.544.624-.816 1.576-.816 2.856 0 1.264.272 2.224.816 2.88.544.64 1.264.96 2.16.96zm13.814 2.28c-1.216 0-2.272-.248-3.168-.744a5.204 5.204 0 0 1-2.088-2.112c-.496-.928-.744-2.016-.744-3.264 0-1.248.248-2.328.744-3.24a5.204 5.204 0 0 1 2.088-2.112c.896-.496 1.952-.744 3.168-.744 1.216 0 2.272.248 3.168.744a5.204 5.204 0 0 1 2.088 2.112c.496.912.744 1.992.744 3.24 0 1.248-.248 2.336-.744 3.264a5.204 5.204 0 0 1-2.088 2.112c-.896.496-1.952.744-3.168.744zm0-2.28c.896 0 1.616-.32 2.16-.96.544-.656.816-1.616.816-2.88 0-1.28-.272-2.232-.816-2.856-.544-.64-1.264-.96-2.16-.96-.896 0-1.616.32-2.16.96-.544.624-.816 1.576-.816 2.856 0 1.264.272 2.224.816 2.88.544.64 1.264.96 2.16.96zm12.724 2.28c-2.88 0-4.32-1.616-4.32-4.848v-5.808c0-1.008.496-1.512 1.488-1.512 1.008 0 1.512.504 1.512 1.512v5.856c0 .832.168 1.448.504 1.848.336.4.872.6 1.608.6.8 0 1.456-.272 1.968-.816.512-.56.768-1.296.768-2.208v-5.28c0-1.008.496-1.512 1.488-1.512 1.008 0 1.512.504 1.512 1.512v9.072c0 1.024-.488 1.536-1.464 1.536s-1.464-.512-1.464-1.536v-.408c-.784 1.328-1.984 1.992-3.6 1.992zm15.027 0c-3.104 0-4.656-1.536-4.656-4.608V41.52h-1.248c-.8 0-1.2-.376-1.2-1.128 0-.752.4-1.128 1.2-1.128h1.248V37.08c0-1.008.504-1.512 1.512-1.512.992 0 1.488.504 1.488 1.512v2.184h2.544c.8 0 1.2.376 1.2 1.128 0 .752-.4 1.128-1.2 1.128h-2.544v4.944c0 .768.168 1.344.504 1.728.336.384.88.576 1.632.576.272 0 .512-.024.72-.072.208-.048.392-.08.552-.096a.55.55 0 0 1 .48.192c.128.128.192.4.192.816 0 .32-.056.608-.168.864-.096.24-.28.408-.552.504-.208.064-.48.12-.816.168a4.817 4.817 0 0 1-.888.096zm15.822 4.32c-.864 0-1.704-.08-2.52-.24a8.364 8.364 0 0 1-2.184-.744c-.384-.192-.616-.44-.696-.744a1.273 1.273 0 0 1 .096-.84c.128-.272.32-.472.576-.6.272-.112.56-.096.864.048.704.352 1.368.576 1.992.672.64.112 1.184.168 1.632.168 2.144 0 3.216-1.032 3.216-3.096v-1.608c-.336.656-.856 1.176-1.56 1.56-.688.384-1.456.576-2.304.576-1.056 0-1.976-.24-2.76-.72-.784-.496-1.392-1.184-1.824-2.064-.432-.88-.648-1.904-.648-3.072 0-1.168.216-2.184.648-3.048.432-.88 1.04-1.56 1.824-2.04.784-.496 1.704-.744 2.76-.744.848 0 1.616.184 2.304.552.688.368 1.192.872 1.512 1.512v-.504c0-.496.128-.872.384-1.128.272-.256.64-.384 1.104-.384.992 0 1.488.504 1.488 1.512v9.24c0 1.904-.504 3.336-1.512 4.296-1.008.96-2.472 1.44-4.392 1.44zm-.072-7.128c.928 0 1.664-.32 2.208-.96.544-.64.816-1.512.816-2.616s-.272-1.968-.816-2.592c-.544-.64-1.28-.96-2.208-.96-.928 0-1.664.32-2.208.96-.544.624-.816 1.488-.816 2.592s.272 1.976.816 2.616c.544.64 1.28.96 2.208.96zm14.869 2.808c-1.328 0-2.472-.248-3.432-.744a5.366 5.366 0 0 1-2.232-2.112c-.512-.912-.768-1.992-.768-3.24 0-1.216.248-2.28.744-3.192a5.581 5.581 0 0 1 2.088-2.136c.896-.528 1.912-.792 3.048-.792 1.664 0 2.976.528 3.936 1.584.976 1.056 1.464 2.496 1.464 4.32 0 .592-.384.888-1.152.888h-7.248c.224 2.096 1.424 3.144 3.6 3.144.416 0 .88-.048 1.392-.144a5.368 5.368 0 0 0 1.488-.552c.416-.24.768-.312 1.056-.216.288.08.488.248.6.504.128.256.144.544.048.864-.08.304-.304.568-.672.792a6.438 6.438 0 0 1-1.944.792c-.72.16-1.392.24-2.016.24zm-.432-10.176c-.88 0-1.592.272-2.136.816-.544.544-.872 1.28-.984 2.208h5.904c-.064-.976-.336-1.72-.816-2.232-.464-.528-1.12-.792-1.968-.792zm12.985 10.176c-3.104 0-4.656-1.536-4.656-4.608V41.52h-1.248c-.8 0-1.2-.376-1.2-1.128 0-.752.4-1.128 1.2-1.128h1.248V37.08c0-1.008.504-1.512 1.512-1.512.992 0 1.488.504 1.488 1.512v2.184h2.544c.8 0 1.2.376 1.2 1.128 0 .752-.4 1.128-1.2 1.128h-2.544v4.944c0 .768.168 1.344.504 1.728.336.384.88.576 1.632.576.272 0 .512-.024.72-.072.208-.048.392-.08.552-.096a.55.55 0 0 1 .48.192c.128.128.192.4.192.816 0 .32-.056.608-.168.864-.096.24-.28.408-.552.504-.208.064-.48.12-.816.168a4.817 4.817 0 0 1-.888.096zm8.531 0c-3.104 0-4.656-1.536-4.656-4.608V41.52h-1.248c-.8 0-1.2-.376-1.2-1.128 0-.752.4-1.128 1.2-1.128h1.248V37.08c0-1.008.504-1.512 1.512-1.512.992 0 1.488.504 1.488 1.512v2.184h2.544c.8 0 1.2.376 1.2 1.128 0 .752-.4 1.128-1.2 1.128h-2.544v4.944c0 .768.168 1.344.504 1.728.336.384.88.576 1.632.576.272 0 .512-.024.72-.072.208-.048.392-.08.552-.096a.55.55 0 0 1 .48.192c.128.128.192.4.192.816 0 .32-.056.608-.168.864-.096.24-.28.408-.552.504-.208.064-.48.12-.816.168a4.817 4.817 0 0 1-.888.096zm5.628-14.376c-.56 0-1-.136-1.32-.408-.304-.288-.456-.68-.456-1.176 0-.512.152-.904.456-1.176.32-.272.76-.408 1.32-.408 1.184 0 1.776.528 1.776 1.584s-.592 1.584-1.776 1.584zm0 14.304c-.48 0-.848-.144-1.104-.432-.256-.288-.384-.688-.384-1.2v-8.808c0-1.088.496-1.632 1.488-1.632 1.008 0 1.512.544 1.512 1.632v8.808c0 .512-.128.912-.384 1.2-.256.288-.632.432-1.128.432zm6.117.024c-.992 0-1.488-.512-1.488-1.536v-9.072c0-1.008.488-1.512 1.464-1.512s1.464.504 1.464 1.512v.504a4.01 4.01 0 0 1 1.608-1.536c.688-.352 1.456-.528 2.304-.528 2.768 0 4.152 1.608 4.152 4.824v5.808c0 1.024-.496 1.536-1.488 1.536-1.008 0-1.512-.512-1.512-1.536v-5.664c0-.912-.176-1.576-.528-1.992-.336-.416-.864-.624-1.584-.624-.88 0-1.584.28-2.112.84-.512.544-.768 1.272-.768 2.184v5.256c0 1.024-.504 1.536-1.512 1.536zm18.023 4.368c-.864 0-1.704-.08-2.52-.24a8.364 8.364 0 0 1-2.184-.744c-.384-.192-.616-.44-.696-.744a1.273 1.273 0 0 1 .096-.84c.128-.272.32-.472.576-.6.272-.112.56-.096.864.048.704.352 1.368.576 1.992.672.64.112 1.184.168 1.632.168 2.144 0 3.216-1.032 3.216-3.096v-1.608c-.336.656-.856 1.176-1.56 1.56-.688.384-1.456.576-2.304.576-1.056 0-1.976-.24-2.76-.72-.784-.496-1.392-1.184-1.824-2.064-.432-.88-.648-1.904-.648-3.072 0-1.168.216-2.184.648-3.048.432-.88 1.04-1.56 1.824-2.04.784-.496 1.704-.744 2.76-.744.848 0 1.616.184 2.304.552.688.368 1.192.872 1.512 1.512v-.504c0-.496.128-.872.384-1.128.272-.256.64-.384 1.104-.384.992 0 1.488.504 1.488 1.512v9.24c0 1.904-.504 3.336-1.512 4.296-1.008.96-2.472 1.44-4.392 1.44zm-.072-7.128c.928 0 1.664-.32 2.208-.96.544-.64.816-1.512.816-2.616s-.272-1.968-.816-2.592c-.544-.64-1.28-.96-2.208-.96-.928 0-1.664.32-2.208.96-.544.624-.816 1.488-.816 2.592s.272 1.976.816 2.616c.544.64 1.28.96 2.208.96zm18.576 7.08c-.544 0-.92-.2-1.128-.6-.208-.4-.2-.856.024-1.368l1.368-3.024-4.104-9.456c-.224-.528-.224-.992 0-1.392.224-.4.664-.6 1.32-.6.368 0 .664.088.888.264.224.16.424.472.6.936l2.88 7.2 2.952-7.224c.176-.448.384-.752.624-.912.24-.176.56-.264.96-.264.512 0 .872.2 1.08.6.208.4.2.856-.024 1.368l-5.832 13.32c-.208.448-.432.752-.672.912-.24.16-.552.24-.936.24zm14.774-4.272c-1.216 0-2.272-.248-3.168-.744a5.204 5.204 0 0 1-2.088-2.112c-.496-.928-.744-2.016-.744-3.264 0-1.248.248-2.328.744-3.24a5.204 5.204 0 0 1 2.088-2.112c.896-.496 1.952-.744 3.168-.744 1.216 0 2.272.248 3.168.744a5.204 5.204 0 0 1 2.088 2.112c.496.912.744 1.992.744 3.24 0 1.248-.248 2.336-.744 3.264a5.204 5.204 0 0 1-2.088 2.112c-.896.496-1.952.744-3.168.744zm0-2.28c.896 0 1.616-.32 2.16-.96.544-.656.816-1.616.816-2.88 0-1.28-.272-2.232-.816-2.856-.544-.64-1.264-.96-2.16-.96-.896 0-1.616.32-2.16.96-.544.624-.816 1.576-.816 2.856 0 1.264.272 2.224.816 2.88.544.64 1.264.96 2.16.96zm12.724 2.28c-2.88 0-4.32-1.616-4.32-4.848v-5.808c0-1.008.496-1.512 1.488-1.512 1.008 0 1.512.504 1.512 1.512v5.856c0 .832.168 1.448.504 1.848.336.4.872.6 1.608.6.8 0 1.456-.272 1.968-.816.512-.56.768-1.296.768-2.208v-5.28c0-1.008.496-1.512 1.488-1.512 1.008 0 1.512.504 1.512 1.512v9.072c0 1.024-.488 1.536-1.464 1.536s-1.464-.512-1.464-1.536v-.408c-.784 1.328-1.984 1.992-3.6 1.992zm11.187-.048c-1.024 0-1.536-.512-1.536-1.536v-9.072c0-1.008.488-1.512 1.464-1.512s1.464.504 1.464 1.512v.744c.576-1.376 1.808-2.144 3.696-2.304.688-.08 1.072.312 1.152 1.176.08.848-.336 1.32-1.248 1.416l-.528.048c-1.968.192-2.952 1.2-2.952 3.024v4.968c0 1.024-.504 1.536-1.512 1.536zM37.68 77.24c-1.072 0-2.12-.12-3.144-.36-1.008-.24-1.888-.6-2.64-1.08-.368-.24-.592-.536-.672-.888-.08-.352-.056-.68.072-.984.144-.32.36-.536.648-.648.304-.128.648-.072 1.032.168a8.2 8.2 0 0 0 2.232.912c.784.192 1.608.288 2.472.288 1.264 0 2.184-.208 2.76-.624.576-.432.864-.984.864-1.656 0-.56-.208-1-.624-1.32-.4-.32-1.096-.584-2.088-.792l-2.64-.552c-3.008-.64-4.512-2.184-4.512-4.632 0-1.056.28-1.976.84-2.76.56-.784 1.336-1.392 2.328-1.824.992-.432 2.136-.648 3.432-.648.96 0 1.872.12 2.736.36.864.24 1.64.592 2.328 1.056.32.224.512.504.576.84.064.32.024.624-.12.912a1.199 1.199 0 0 1-.696.576c-.304.096-.664.024-1.08-.216a6.832 6.832 0 0 0-1.8-.72 8.527 8.527 0 0 0-1.968-.216c-1.104 0-1.968.232-2.592.696-.624.464-.936 1.072-.936 1.824 0 .576.192 1.04.576 1.392.384.336 1.04.6 1.968.792l2.616.552c1.584.336 2.76.864 3.528 1.584.784.72 1.176 1.68 1.176 2.88 0 1.008-.272 1.896-.816 2.664-.544.768-1.32 1.368-2.328 1.8-.992.416-2.168.624-3.528.624zm13.269 0c-2.88 0-4.32-1.616-4.32-4.848v-5.808c0-1.008.496-1.512 1.488-1.512 1.008 0 1.512.504 1.512 1.512v5.856c0 .832.168 1.448.504 1.848.336.4.872.6 1.608.6.8 0 1.456-.272 1.968-.816.512-.56.768-1.296.768-2.208v-5.28c0-1.008.496-1.512 1.488-1.512 1.008 0 1.512.504 1.512 1.512v9.072c0 1.024-.488 1.536-1.464 1.536s-1.464-.512-1.464-1.536v-.408c-.784 1.328-1.984 1.992-3.6 1.992zm11.186-.048c-1.024 0-1.536-.512-1.536-1.536v-9.072c0-1.008.488-1.512 1.464-1.512s1.464.504 1.464 1.512v.744c.576-1.376 1.808-2.144 3.696-2.304.688-.08 1.072.312 1.152 1.176.08.848-.336 1.32-1.248 1.416l-.528.048c-1.968.192-2.952 1.2-2.952 3.024v4.968c0 1.024-.504 1.536-1.512 1.536zm13.147 4.368c-.864 0-1.704-.08-2.52-.24a8.364 8.364 0 0 1-2.184-.744c-.384-.192-.616-.44-.696-.744a1.273 1.273 0 0 1 .096-.84c.128-.272.32-.472.576-.6.272-.112.56-.096.864.048.704.352 1.368.576 1.992.672.64.112 1.184.168 1.632.168 2.144 0 3.216-1.032 3.216-3.096v-1.608c-.336.656-.856 1.176-1.56 1.56-.688.384-1.456.576-2.304.576-1.056 0-1.976-.24-2.76-.72-.784-.496-1.392-1.184-1.824-2.064-.432-.88-.648-1.904-.648-3.072 0-1.168.216-2.184.648-3.048.432-.88 1.04-1.56 1.824-2.04.784-.496 1.704-.744 2.76-.744.848 0 1.616.184 2.304.552.688.368 1.192.872 1.512 1.512v-.504c0-.496.128-.872.384-1.128.272-.256.64-.384 1.104-.384.992 0 1.488.504 1.488 1.512v9.24c0 1.904-.504 3.336-1.512 4.296-1.008.96-2.472 1.44-4.392 1.44zm-.072-7.128c.928 0 1.664-.32 2.208-.96.544-.64.816-1.512.816-2.616s-.272-1.968-.816-2.592c-.544-.64-1.28-.96-2.208-.96-.928 0-1.664.32-2.208.96-.544.624-.816 1.488-.816 2.592s.272 1.976.816 2.616c.544.64 1.28.96 2.208.96zm14.868 2.808c-1.328 0-2.472-.248-3.432-.744a5.366 5.366 0 0 1-2.232-2.112c-.512-.912-.768-1.992-.768-3.24 0-1.216.248-2.28.744-3.192a5.581 5.581 0 0 1 2.088-2.136c.896-.528 1.912-.792 3.048-.792 1.664 0 2.976.528 3.936 1.584.976 1.056 1.464 2.496 1.464 4.32 0 .592-.384.888-1.152.888h-7.248c.224 2.096 1.424 3.144 3.6 3.144.416 0 .88-.048 1.392-.144a5.368 5.368 0 0 0 1.488-.552c.416-.24.768-.312 1.056-.216.288.08.488.248.6.504.128.256.144.544.048.864-.08.304-.304.568-.672.792a6.438 6.438 0 0 1-1.944.792c-.72.16-1.392.24-2.016.24zm-.432-10.176c-.88 0-1.592.272-2.136.816-.544.544-.872 1.28-.984 2.208h5.904c-.064-.976-.336-1.72-.816-2.232-.464-.528-1.12-.792-1.968-.792zm9.192 10.128c-1.024 0-1.536-.512-1.536-1.536v-9.072c0-1.008.488-1.512 1.464-1.512s1.464.504 1.464 1.512v.744c.576-1.376 1.808-2.144 3.696-2.304.688-.08 1.072.312 1.152 1.176.08.848-.336 1.32-1.248 1.416l-.528.048c-1.968.192-2.952 1.2-2.952 3.024v4.968c0 1.024-.504 1.536-1.512 1.536zm11.565 4.32c-.544 0-.92-.2-1.128-.6-.208-.4-.2-.856.024-1.368l1.368-3.024-4.104-9.456c-.224-.528-.224-.992 0-1.392.224-.4.664-.6 1.32-.6.368 0 .664.088.888.264.224.16.424.472.6.936l2.88 7.2 2.952-7.224c.176-.448.384-.752.624-.912.24-.176.56-.264.96-.264.512 0 .872.2 1.08.6.208.4.2.856-.024 1.368l-5.832 13.32c-.208.448-.432.752-.672.912-.24.16-.552.24-.936.24zm20.685-4.272c-1.024 0-1.928-.248-2.712-.744-.768-.496-1.368-1.2-1.8-2.112-.432-.928-.648-2.016-.648-3.264 0-1.264.216-2.344.648-3.24.432-.912 1.032-1.616 1.8-2.112.784-.496 1.688-.744 2.712-.744.832 0 1.584.184 2.256.552.672.368 1.176.856 1.512 1.464V61.4c0-1.008.496-1.512 1.488-1.512 1.008 0 1.512.504 1.512 1.512v14.256c0 1.024-.496 1.536-1.488 1.536s-1.488-.512-1.488-1.536v-.504c-.336.64-.84 1.152-1.512 1.536-.672.368-1.432.552-2.28.552zm.84-2.28c.896 0 1.616-.32 2.16-.96.544-.656.816-1.616.816-2.88 0-1.28-.272-2.232-.816-2.856-.544-.64-1.264-.96-2.16-.96-.896 0-1.616.32-2.16.96-.544.624-.816 1.576-.816 2.856 0 1.264.272 2.224.816 2.88.544.64 1.264.96 2.16.96zm14.39 2.28c-1.216 0-2.272-.248-3.168-.744a5.204 5.204 0 0 1-2.088-2.112c-.496-.928-.744-2.016-.744-3.264 0-1.248.248-2.328.744-3.24a5.204 5.204 0 0 1 2.088-2.112c.896-.496 1.952-.744 3.168-.744 1.216 0 2.272.248 3.168.744a5.204 5.204 0 0 1 2.088 2.112c.496.912.744 1.992.744 3.24 0 1.248-.248 2.336-.744 3.264a5.204 5.204 0 0 1-2.088 2.112c-.896.496-1.952.744-3.168.744zm0-2.28c.896 0 1.616-.32 2.16-.96.544-.656.816-1.616.816-2.88 0-1.28-.272-2.232-.816-2.856-.544-.64-1.264-.96-2.16-.96-.896 0-1.616.32-2.16.96-.544.624-.816 1.576-.816 2.856 0 1.264.272 2.224.816 2.88.544.64 1.264.96 2.16.96zm9.964 2.232c-.992 0-1.488-.512-1.488-1.536v-9.072c0-1.008.488-1.512 1.464-1.512s1.464.504 1.464 1.512v.504a4.01 4.01 0 0 1 1.608-1.536c.688-.352 1.456-.528 2.304-.528 2.768 0 4.152 1.608 4.152 4.824v5.808c0 1.024-.496 1.536-1.488 1.536-1.008 0-1.512-.512-1.512-1.536v-5.664c0-.912-.176-1.576-.528-1.992-.336-.416-.864-.624-1.584-.624-.88 0-1.584.28-2.112.84-.512.544-.768 1.272-.768 2.184v5.256c0 1.024-.504 1.536-1.512 1.536zm18.335.048c-1.328 0-2.472-.248-3.432-.744a5.366 5.366 0 0 1-2.232-2.112c-.512-.912-.768-1.992-.768-3.24 0-1.216.248-2.28.744-3.192a5.581 5.581 0 0 1 2.088-2.136c.896-.528 1.912-.792 3.048-.792 1.664 0 2.976.528 3.936 1.584.976 1.056 1.464 2.496 1.464 4.32 0 .592-.384.888-1.152.888h-7.248c.224 2.096 1.424 3.144 3.6 3.144.416 0 .88-.048 1.392-.144a5.368 5.368 0 0 0 1.488-.552c.416-.24.768-.312 1.056-.216.288.08.488.248.6.504.128.256.144.544.048.864-.08.304-.304.568-.672.792a6.438 6.438 0 0 1-1.944.792c-.72.16-1.392.24-2.016.24zm-.432-10.176c-.88 0-1.592.272-2.136.816-.544.544-.872 1.28-.984 2.208h5.904c-.064-.976-.336-1.72-.816-2.232-.464-.528-1.12-.792-1.968-.792zm11.214 5.04c-.304 0-.544-.096-.72-.288-.16-.208-.24-.48-.24-.816 0-.736.136-1.424.408-2.064.288-.64.768-1.336 1.44-2.088.512-.56.864-1.04 1.056-1.44.208-.4.312-.824.312-1.272 0-.528-.192-.944-.576-1.248-.384-.304-.928-.456-1.632-.456-.64 0-1.224.088-1.752.264a7.798 7.798 0 0 0-1.56.696c-.432.256-.816.344-1.152.264a1.095 1.095 0 0 1-.696-.576c-.144-.288-.168-.608-.072-.96.096-.352.352-.664.768-.936a7.595 7.595 0 0 1 2.256-.984c.848-.24 1.648-.36 2.4-.36 1.008 0 1.888.168 2.64.504.768.336 1.36.8 1.776 1.392.432.592.648 1.288.648 2.088 0 .736-.168 1.424-.504 2.064-.32.64-.896 1.336-1.728 2.088-.752.688-1.272 1.28-1.56 1.776a4.353 4.353 0 0 0-.552 1.584.756.756 0 0 1-.288.552c-.16.144-.384.216-.672.216zm-.048 5.016c-.544 0-.984-.168-1.32-.504-.32-.336-.48-.768-.48-1.296 0-.512.16-.928.48-1.248.336-.336.776-.504 1.32-.504.56 0 .992.168 1.296.504.32.32.48.736.48 1.248 0 .528-.16.96-.48 1.296-.304.336-.736.504-1.296.504z" fill="#050A4E"/><mask id="a" width="469" height="213" x="0" y="0" maskUnits="userSpaceOnUse" style="mask-type:alpha"><rect fill="#fff" width="469" height="213" rx="20"/></mask><g mask="url(#a)"><path d="M437.472 69.172a35.747 35.747 0 0 0-11.632-7.728 35.852 35.852 0 0 0-13.718-2.69 36.838 36.838 0 0 0-25.349 10.418 307.259 307.259 0 0 0-58.318 58.109 35.613 35.613 0 0 0-7.755 11.59 35.52 35.52 0 0 0-2.7 13.668 36.54 36.54 0 0 0 10.455 25.258 224.808 224.808 0 0 0 30.326 35.485h93.931a17.39 17.39 0 0 0 12.277-5.067 17.265 17.265 0 0 0 5.086-12.233V98.294a351.176 351.176 0 0 0-32.603-29.122z" fill="url(#b)" opacity=".1"/><path d="m407.845 108.55 11.569 10.03-27.173 2.485s-9.6-1.915-9.157-2.255a23.076 23.076 0 0 1 24.761-10.26zm22.433 32.737-.561 13.271 8.876 1.989 6.809-13.655-15.124-1.605z" fill="#fff" stroke="#707070" stroke-width=".7"/><path d="m363.396 145.841-10.038 22.936 11.961 8.052a156.03 156.03 0 0 1-.098 13.097 150.891 150.891 0 0 1-1.274 13.252c-11.447 39.322 21.818 16.418 35.402 17.835a55.856 55.856 0 0 0 38.32-10.145 191.335 191.335 0 0 1-4.061-35.155c.466-8.473.931-16.946 1.394-25.418l-3.689-20.242-22.531 8.019-15.822 2.83-29.564 4.939zm20.492-31.408c-.357.132-.713.281-1.1.432a13.484 13.484 0 0 0 5.388-3.877 15.28 15.28 0 0 0 3.216-11.132 35.023 35.023 0 0 1-11.356-15.98 32.661 32.661 0 0 1-1.631-12.451c.321-3.872.469-5.934 1.796-7.944 3.793-5.735 11.571-1.519 20.448-7.867 6.098-4.39 7.006-8.436 10.624-8.265 6.584.318 10.519 13.969 10.866 15.27a36.374 36.374 0 0 1-.503 20.063 38.212 38.212 0 0 1-11.369 17.354 11.274 11.274 0 0 0 .961 8.294 11.744 11.744 0 0 0 6.521 4.924" fill="#fff"/><path d="M383.888 114.433c-.357.132-.713.281-1.1.432a13.484 13.484 0 0 0 5.388-3.877 15.28 15.28 0 0 0 3.216-11.132 35.023 35.023 0 0 1-11.356-15.98 32.661 32.661 0 0 1-1.631-12.451c.321-3.872.469-5.934 1.796-7.944 3.793-5.735 11.571-1.519 20.448-7.867 6.098-4.39 7.006-8.436 10.624-8.265 6.584.318 10.519 13.969 10.866 15.27a36.374 36.374 0 0 1-.503 20.063 38.212 38.212 0 0 1-11.369 17.354 11.274 11.274 0 0 0 .961 8.294 11.744 11.744 0 0 0 6.521 4.924" stroke="#2D2D2D" stroke-miterlimit="10" stroke-width=".7"/><path d="M401.019 102.215c12.521-.118 22.543-13.84 22.385-30.647-.159-16.808-10.437-30.338-22.958-30.22-12.521.118-22.543 13.839-22.385 30.647.159 16.808 10.437 30.338 22.958 30.22z" fill="#fff" stroke="#2D2D2D" stroke-miterlimit="10" stroke-width=".7"/><path d="M357.301 222.534a87.443 87.443 0 0 0 8.307-30.358 84.88 84.88 0 0 0 .262-9.354m74.594 38.928a161.616 161.616 0 0 1-4.672-23.2 163.948 163.948 0 0 1-.931-9.811s-.317-10.26-.14-14.918" stroke="#2D2D2D" stroke-linecap="round" stroke-miterlimit="10" stroke-width=".7"/><path d="M421.931 82.215c5.852-2.82 8.027-8.037 6.595-10.888-1.154-2.297-4.517-2.793-5.306-2.889a39.749 39.749 0 0 1-1.289 13.777v0zm-43.268-.713c-5.513-2.73-7.476-7.947-5.954-10.871a7.21 7.21 0 0 1 5.345-2.977 39.266 39.266 0 0 0-.34 5.816 39.83 39.83 0 0 0 .949 8.032v0z" fill="#fff" stroke="#2D2D2D" stroke-linecap="round" stroke-miterlimit="10" stroke-width=".7"/><path d="M403.959 155.814c-3.549.585-11.885 4.044-21.081 5.342l-30.47 3.829s-3.894 32.938 56.993 7.76c0 0 2.56-1.178 2.338-3.347-.221-2.17-3.186-14.34-7.78-13.584z" fill="#C4C4C4" stroke="#2D2D2D" stroke-linecap="round" stroke-miterlimit="10" stroke-width=".7"/><path d="M372.334 152.7c.081 8.557 6.978 8.962 10.544 8.458 9.196-1.298 17.531-4.757 21.08-5.342 4.594-.756 7.56 11.414 7.781 13.583.221 2.17-2.338 3.348-2.338 3.348-60.887 25.178-56.994-7.76-56.994-7.76.671-38.197 12.569-43.561 12.569-43.561 5.284-3.604 11.471-7.169 17.831-7.838a11.133 11.133 0 0 1 8.428 1.198c5.907 3.775 14.278 3.438 18.46.168a10.905 10.905 0 0 1 8.058-1.695c.181.024.453.062.784.111a42.881 42.881 0 0 1 23.498 11.419c2.792 2.842 3.002 7.307 7.321 16.32" fill="#fff"/><path d="M372.334 152.7c.081 8.557 6.978 8.962 10.544 8.458 9.196-1.298 17.531-4.757 21.08-5.342 4.594-.756 7.56 11.414 7.781 13.583.221 2.17-2.338 3.348-2.338 3.348-60.887 25.178-56.994-7.76-56.994-7.76.671-38.197 12.569-43.561 12.569-43.561 5.284-3.604 11.471-7.169 17.831-7.838a11.133 11.133 0 0 1 8.428 1.198c5.907 3.775 14.278 3.438 18.46.168a10.905 10.905 0 0 1 8.058-1.695c.181.024.453.062.784.111a42.881 42.881 0 0 1 23.498 11.419c2.792 2.842 3.002 7.307 7.321 16.32" stroke="#2D2D2D" stroke-linecap="round" stroke-miterlimit="10" stroke-width=".7"/><path d="M423.327 135.014a91.675 91.675 0 0 0-4.765-21.64" stroke="#2D2D2D" stroke-linecap="round" stroke-miterlimit="10" stroke-width=".7"/><path d="M423.699 141.041a3.605 3.605 0 1 0-.068-7.21 3.605 3.605 0 1 0 .068 7.21z" fill="#FF8E93" stroke="#2D2D2D" stroke-miterlimit="10" stroke-width=".7"/><path d="M382.943 153.511a6.384 6.384 0 0 1-5.807 1.043c-6.541-3.074-5.491-28.131 2.56-30.888 8.336-2.859 25.068 17.898 21.563 24.101-.71 1.253-2.352 2.109-5.358 2.321" stroke="#2D2D2D" stroke-linecap="round" stroke-miterlimit="10" stroke-width=".7"/><path d="M382.428 156.275a2.64 2.64 0 1 0-.049-5.28 2.64 2.64 0 0 0 .049 5.28zm11.682-2.95a2.642 2.642 0 1 0-.05-5.284 2.642 2.642 0 0 0 .05 5.284z" fill="#FF8E93" stroke="#2D2D2D" stroke-miterlimit="10" stroke-width=".7"/><path d="M423.345 73.239c.077 4.929-.764 23.364-17.197 29.049a16.906 16.906 0 0 1-11.088.014c-6.918-2.41-17.661-9.499-16.972-30.032.014-.2-.223-.289-.018-.275l.018.275c-.166.608-.16 1.25.018 1.854 2.425 3.02 11.072-1.267 21.363-1.364 10.688-.1 20.854 3.647 23.77 1.395" fill="#86BCFF"/><path d="M423.345 73.239c.077 4.929-.764 23.364-17.197 29.049a16.906 16.906 0 0 1-11.088.014c-6.918-2.41-17.661-9.499-16.972-30.032.014-.2-.223-.289-.018-.275l.018.275c-.166.608-.16 1.25.018 1.854 2.425 3.02 11.072-1.267 21.363-1.364 10.688-.1 20.854 3.647 23.77 1.395" stroke="#2D2D2D" stroke-linecap="round" stroke-miterlimit="10" stroke-width=".7"/><path d="M432.424 158.286a14.055 14.055 0 0 0-1.89 10.138c.613 3.917 6.941 7.9 10.906 7.816a12.558 12.558 0 0 0 6.897-3.864c4.041-5.03 1.029-31.271 1.029-31.271" fill="#fff"/><path d="M432.424 158.286a14.055 14.055 0 0 0-1.89 10.138c.613 3.917 6.941 7.9 10.906 7.816a12.558 12.558 0 0 0 6.897-3.864c4.041-5.03 1.029-31.271 1.029-31.271" stroke="#2D2D2D" stroke-linecap="round" stroke-miterlimit="10" stroke-width=".7"/><path d="M433.926 162.025s.899 5.764 8.002 4.779c7.103-.985 5.33-22.834 7.231-25.787 1.901-2.952 9.44-8.9 11.82-12.06 2.38-3.16 5.481-6.837 5.481-6.837s6.174-10.081 7.1-14.141c0 0 .338-2.534-1.709-2.21 0 0-1.204.113-1.44.519 0 0-.144-2.327-2.069-2.007a3.44 3.44 0 0 0-2.257 3.566 22.446 22.446 0 0 1-1.861 7.206s-.182-6.477-1.774-9.094a1.946 1.946 0 0 0-2.036-1.219 1.943 1.943 0 0 0-1.697 1.658c.129.91 1.158 7.785 1.053 9.205a3.97 3.97 0 0 1-.704 2.131s-.487-.399-.747-2.42c-.259-2.021-.9-6.066-3.066-5.541a1.955 1.955 0 0 0-1.712 2.347 78.514 78.514 0 0 0-5.652 9.065c-1.892 3.864-6.645 11.2-7.35 13.13-.706 1.931-6.642 24.365-6.642 24.365a6.011 6.011 0 0 0 .029 3.345v0z" fill="#86BCFF" stroke="#2D2D2D" stroke-linecap="round" stroke-miterlimit="10" stroke-width=".7"/><path d="M453.735 112.208c.58 1.791.835 3.671.754 5.552a24.1 24.1 0 0 0 .785 7.692" fill="#86BCFF"/><path d="M453.735 112.208c.58 1.791.835 3.671.754 5.552a24.1 24.1 0 0 0 .785 7.692" stroke="#2D2D2D" stroke-linecap="round" stroke-miterlimit="10" stroke-width=".7"/><path d="M459.26 117.826s-.374.617 1.135 4.825z" fill="#86BCFF"/><path d="M459.26 117.826s-.374.617 1.135 4.825" stroke="#2D2D2D" stroke-linecap="round" stroke-miterlimit="10" stroke-width=".7"/><path d="M454.49 117.256a21.882 21.882 0 0 0-.984 4.422z" fill="#86BCFF"/><path d="M454.49 117.256a21.882 21.882 0 0 0-.984 4.422" stroke="#2D2D2D" stroke-linecap="round" stroke-miterlimit="10" stroke-width=".7"/><path d="M433.749 144.28s.443 5.044-1.108 6.932" stroke="#2D2D2D" stroke-linecap="round" stroke-linejoin="bevel" stroke-width=".7"/><path d="M431.135 161.07a35.264 35.264 0 0 0 3.33-10.566s-.513-3.422 4.377-1.698c4.891 1.723 8.849 2.377 10.585 1.33 1.736-1.047 3.046.053 2.406 1.22a60.999 60.999 0 0 0-1.45 11.523" fill="#fff"/><path d="M431.135 161.07a35.264 35.264 0 0 0 3.33-10.566s-.513-3.422 4.377-1.698c4.891 1.723 8.849 2.377 10.585 1.33 1.736-1.047 3.046.053 2.406 1.22a60.999 60.999 0 0 0-1.45 11.523" stroke="#2D2D2D" stroke-linecap="round" stroke-linejoin="bevel" stroke-width=".7"/><path d="m447.554 160.242-1.426 9.586-14.938-2.54 2.356-7.541 14.008.495z" fill="#fff"/><path d="M433.13 143.44a6.015 6.015 0 0 1 3.837 6.293c.056 8.546-4.688 8.037-4.688 8.037-.86 2.479-6.408 3.551-6.408 3.551-1.949 2.339-3.591 1.578-3.591 1.578a12.854 12.854 0 0 1-4.724 1.245 15.716 15.716 0 0 0-6.537 3.354 4.276 4.276 0 0 1-1.609 1.119c-6.638-.428-7.898-6.076-8.055-9.431a2.593 2.593 0 0 1 1.943-2.628c1.873-.506 5.055-2.164 9.049-7.328 0-.007 6.627-9.321 20.783-5.79z" fill="#86BCFF" stroke="#2D2D2D" stroke-linecap="round" stroke-miterlimit="10" stroke-width=".7"/><path d="M416.695 153.238a30.474 30.474 0 0 0 3.227 2.995c1.251.922-1.371 2.961-1.431 3.608-.06.647-.545 1.883.88 2.772 1.425.89 3.6-1.113 4.459-2.91a6.247 6.247 0 0 0 .081-6.42 29.733 29.733 0 0 0-3.236-3.577" fill="#86BCFF"/><path d="M416.695 153.238a30.474 30.474 0 0 0 3.227 2.995c1.251.922-1.371 2.961-1.431 3.608-.06.647-.545 1.883.88 2.772 1.425.89 3.6-1.113 4.459-2.91a6.247 6.247 0 0 0 .081-6.42 29.733 29.733 0 0 0-3.236-3.577" stroke="#2D2D2D" stroke-linecap="round" stroke-miterlimit="10" stroke-width=".7"/><path d="M425.871 161.321a12.527 12.527 0 0 0 3.367-5.908 6.28 6.28 0 0 0-2.453-7.173" fill="#86BCFF"/><path d="M425.871 161.321a12.527 12.527 0 0 0 3.367-5.908 6.28 6.28 0 0 0-2.453-7.173" stroke="#2D2D2D" stroke-linecap="round" stroke-miterlimit="10" stroke-width=".7"/><path d="M432.015 158.291c2.646-3.401 1.677-7.011 1.463-10.303a5.076 5.076 0 0 0-1.262-2.012" fill="#86BCFF"/><path d="M432.015 158.291c2.646-3.401 1.677-7.011 1.463-10.303a5.076 5.076 0 0 0-1.262-2.012" stroke="#2D2D2D" stroke-linecap="round" stroke-miterlimit="10" stroke-width=".7"/><path d="M393.54 158.8s6.667-2.101 9.077-2.707c2.411-.605 2.377-.225 2.377-.225 8.03 3.508 6.539 14.82 6.539 14.82a5.642 5.642 0 0 1-3.166 2.484c-2.045.502-3.999 1.705-8.135 3.108" fill="#fff"/><path d="M393.54 158.8s6.667-2.101 9.077-2.707c2.411-.605 2.377-.225 2.377-.225 8.03 3.508 6.539 14.82 6.539 14.82a5.642 5.642 0 0 1-3.166 2.484c-2.045.502-3.999 1.705-8.135 3.108" stroke="#2D2D2D" stroke-linecap="round" stroke-linejoin="round" stroke-width=".7"/><path d="M378.056 67.655s2.491-8.168 8.796-7.18c6.305.99 24.273 2.29 27.179-6.132 0 0-24.57-6.695-32.497-1.582-.002 0-3.831 11.124-3.478 14.894z" fill="#474747" stroke="#2D2D2D" stroke-miterlimit="10" stroke-width=".7"/><path d="M378.243 64.094s3.064-8.768 22.399-8.48c19.336.288 21.5 7.002 21.5 7.002s.903 4.78 3.169 1.032c0 0 4.621-5.574 2.11-10.312 0 0-.334-7.808-5.845-10.042 0 0-3.473-8.317-11.465-7.395 0 0-9.956-5.059-17.145.102 0 0-10.853.623-12.888 7.119 0 0-5.103 2.906-4.273 10.899a9.462 9.462 0 0 0 2.438 10.075v0z" fill="#86BCFF" stroke="#2D2D2D" stroke-linecap="round" stroke-miterlimit="10" stroke-width=".7"/><path d="M379.687 123.666s-.528-7.754 3.111-10.079" stroke="#2D2D2D" stroke-linecap="round" stroke-miterlimit="10" stroke-width=".7"/><path d="m405.174 44.461-1.516.026a.48.48 0 0 1-.488-.468l-.029-1.443a1.544 1.544 0 0 0-3.067-.004l.032 1.496a.484.484 0 0 1-.481.479l-1.609.03a1.53 1.53 0 0 0-1.546 1.517 1.53 1.53 0 0 0 1.605 1.442l1.611-.044a.48.48 0 0 1 .507.452l.031 1.454a1.475 1.475 0 0 0 1.205 1.42 1.545 1.545 0 0 0 1.858-1.46l-.03-1.48a.481.481 0 0 1 .477-.482l1.513-.04a1.482 1.482 0 0 0 1.469-1.48 1.474 1.474 0 0 0-1.525-1.428l-.017.013z" fill="#FF8E93" stroke="#2D2D2D" stroke-miterlimit="10" stroke-width=".7"/></g><rect fill="#1778F2" width="116" height="40" x="30" y="153" rx="10"/><path d="M47.142 178c-.606 0-.91-.308-.91-.924v-8.078c0-.607.299-.91.896-.91.598 0 .896.303.896.91v7.476h4.06c.523 0 .784.252.784.756 0 .513-.261.77-.784.77h-4.942zm10.09.14c-.775 0-1.443-.145-2.003-.434-.56-.289-.994-.7-1.302-1.232-.298-.532-.448-1.162-.448-1.89 0-.709.145-1.33.434-1.862a3.257 3.257 0 0 1 1.218-1.246c.523-.308 1.116-.462 1.778-.462.97 0 1.736.308 2.296.924.57.616.854 1.456.854 2.52 0 .345-.224.518-.672.518H55.16c.13 1.223.83 1.834 2.1 1.834.243 0 .514-.028.812-.084.308-.065.598-.173.868-.322.243-.14.448-.182.616-.126a.51.51 0 0 1 .35.294.665.665 0 0 1 .028.504c-.046.177-.177.331-.392.462a3.774 3.774 0 0 1-1.134.462 5.46 5.46 0 0 1-1.176.14zm-.253-5.936c-.513 0-.928.159-1.246.476-.317.317-.508.747-.574 1.288h3.444c-.037-.569-.196-1.003-.476-1.302-.27-.308-.653-.462-1.148-.462zm6.72 5.936c-.494 0-.938-.093-1.33-.28a2.408 2.408 0 0 1-.91-.784 1.969 1.969 0 0 1-.322-1.106c0-.504.13-.901.392-1.19.261-.299.686-.513 1.274-.644s1.377-.196 2.366-.196h.49v-.294c0-.467-.103-.803-.308-1.008-.205-.205-.55-.308-1.036-.308-.27 0-.564.033-.882.098a4.661 4.661 0 0 0-.98.336c-.224.103-.41.117-.56.042a.655.655 0 0 1-.308-.378.866.866 0 0 1 .028-.532c.075-.177.22-.308.434-.392.43-.177.84-.303 1.232-.378a5.99 5.99 0 0 1 1.092-.112c.999 0 1.74.233 2.226.7.486.457.728 1.171.728 2.142v3.36c0 .597-.27.896-.812.896-.55 0-.826-.299-.826-.896v-.308a1.95 1.95 0 0 1-.756.91c-.345.215-.756.322-1.232.322zm.364-1.204c.457 0 .835-.159 1.134-.476.308-.317.462-.719.462-1.204v-.308h-.476c-.877 0-1.489.07-1.834.21-.336.131-.504.373-.504.728 0 .308.108.56.322.756.215.196.514.294.896.294zm5.934 1.176c-.597 0-.896-.299-.896-.896v-5.292c0-.588.285-.882.854-.882.57 0 .854.294.854.882v.434c.336-.803 1.055-1.251 2.156-1.344.402-.047.626.182.672.686.047.495-.196.77-.728.826l-.308.028c-1.148.112-1.722.7-1.722 1.764v2.898c0 .597-.294.896-.882.896zm5.455 0c-.579 0-.868-.299-.868-.896v-5.292c0-.588.284-.882.854-.882.57 0 .854.294.854.882v.294c.233-.392.546-.691.938-.896.401-.205.85-.308 1.344-.308 1.615 0 2.422.938 2.422 2.814v3.388c0 .597-.29.896-.868.896-.588 0-.882-.299-.882-.896v-3.304c0-.532-.103-.919-.308-1.162-.196-.243-.504-.364-.924-.364-.513 0-.924.163-1.232.49-.299.317-.448.742-.448 1.274v3.066c0 .597-.294.896-.882.896zm12.13 0c-.541 0-.812-.28-.812-.84v-8.414c0-.56.28-.84.84-.84.233 0 .415.047.546.14.14.084.266.233.378.448l3.234 5.978 3.234-5.978c.112-.215.233-.364.364-.448.13-.093.313-.14.546-.14.541 0 .812.28.812.84v8.414c0 .56-.27.84-.812.84-.541 0-.812-.28-.812-.84v-5.922l-2.632 4.802a1.142 1.142 0 0 1-.294.35c-.103.075-.243.112-.42.112a.765.765 0 0 1-.434-.112 1.11 1.11 0 0 1-.294-.35l-2.632-4.774v5.894c0 .56-.27.84-.812.84zm14.268.028c-.709 0-1.325-.145-1.848-.434a3.035 3.035 0 0 1-1.218-1.232c-.289-.541-.434-1.176-.434-1.904s.145-1.358.434-1.89c.29-.532.696-.943 1.218-1.232.523-.289 1.139-.434 1.848-.434.71 0 1.326.145 1.848.434.523.289.929.7 1.218 1.232.29.532.434 1.162.434 1.89s-.144 1.363-.434 1.904a3.03 3.03 0 0 1-1.218 1.232c-.522.289-1.138.434-1.848.434zm0-1.33c.523 0 .943-.187 1.26-.56.318-.383.476-.943.476-1.68 0-.747-.158-1.302-.476-1.666-.317-.373-.737-.56-1.26-.56-.522 0-.942.187-1.26.56-.317.364-.476.919-.476 1.666 0 .737.159 1.297.476 1.68.318.373.738.56 1.26.56zm5.841 1.302c-.598 0-.896-.299-.896-.896v-5.292c0-.588.284-.882.854-.882.569 0 .854.294.854.882v.434c.336-.803 1.054-1.251 2.156-1.344.401-.047.625.182.672.686.046.495-.196.77-.728.826l-.308.028c-1.148.112-1.722.7-1.722 1.764v2.898c0 .597-.294.896-.882.896zm7.851.028c-.775 0-1.442-.145-2.002-.434-.56-.289-.994-.7-1.302-1.232-.299-.532-.448-1.162-.448-1.89 0-.709.144-1.33.434-1.862a3.248 3.248 0 0 1 1.218-1.246c.522-.308 1.115-.462 1.778-.462.97 0 1.736.308 2.296.924.569.616.854 1.456.854 2.52 0 .345-.224.518-.672.518h-4.228c.13 1.223.83 1.834 2.1 1.834.242 0 .513-.028.812-.084.308-.065.597-.173.868-.322.242-.14.448-.182.616-.126a.511.511 0 0 1 .35.294.667.667 0 0 1 .028.504c-.047.177-.178.331-.392.462a3.78 3.78 0 0 1-1.134.462 5.46 5.46 0 0 1-1.176.14zm-.252-5.936c-.514 0-.929.159-1.246.476-.318.317-.509.747-.574 1.288h3.444c-.038-.569-.196-1.003-.476-1.302-.271-.308-.654-.462-1.148-.462z" fill="#fff"/><path d="m127 177 4-4-4-4" stroke="#fff" stroke-linecap="round" stroke-linejoin="round" stroke-width="1.5"/><defs><linearGradient id="b" x1="394.037" x2="394.037" y1="58.755" y2="213.282" gradientUnits="userSpaceOnUse"><stop stop-color="#C7DCFF"/><stop offset="1" stop-color="#FFABAF"/></linearGradient></defs></svg>