<svg xmlns="http://www.w3.org/2000/svg" fill="none" width="1440" height="100" viewBox="0 0 1440 100"><g clip-path="url(#a)"><rect fill="#fff" width="1440" height="100" rx="20"/><g fill="#1778F2" opacity=".2"><path d="M-723.918 432.669s355.428 164.686 738.077 69.962C396.808 407.906 352.97 150.746 806.68 53.752c453.711-96.994 655.301 149.924 1022.311 60.903 367.02-89.021 445.78-416.984 445.78-416.984l196.75 977.017L-648.821 1191.4l-75.097-758.731z" opacity=".13"/><path d="M-711.468 680.734s378.097 94.699 735.884-46.582c357.787-141.281 268.267-364.743 695.273-518.556 427.011-153.812 669.251 37.16 1012.761-96.71s361.28-438.763 361.28-438.763l369.73 844.514-2963.935 923.423-210.993-667.326z" opacity=".13"/><path d="M2162.48 391.716s-355.43 164.687-738.08 69.962c-382.65-94.725-338.81-351.885-792.517-448.879C178.174-84.195-23.414 162.723-390.431 73.702-757.447-15.32-836.208-343.282-836.208-343.282l-196.752 977.017 3120.34 516.715 75.1-758.734z" opacity=".13"/><path d="M2201.62 680.734s-378.09 94.699-735.88-46.581c-357.79-141.279-268.27-364.743-695.273-518.555C343.46-38.215 101.222 152.754-242.291 18.888c-343.514-133.866-361.287-438.765-361.287-438.765L-973.3 424.636l2963.93 923.424 210.99-667.326z" opacity=".13"/></g><rect fill="#1778F2" width="186" height="60" x="1194" y="20" rx="10"/><path d="M1219.74 58c-1.04 0-1.56-.528-1.56-1.584V42.568c0-1.04.52-1.56 1.54-1.56s1.54.52 1.54 1.56v12.816h6.96c.89 0 1.34.432 1.34 1.296 0 .88-.45 1.32-1.34 1.32h-8.48zm17.3.24c-1.33 0-2.47-.248-3.43-.744s-1.71-1.2-2.23-2.112c-.52-.912-.77-1.992-.77-3.24 0-1.216.25-2.28.74-3.192a5.572 5.572 0 0 1 2.09-2.136c.9-.528 1.91-.792 3.05-.792 1.66 0 2.97.528 3.93 1.584.98 1.056 1.47 2.496 1.47 4.32 0 .592-.39.888-1.15.888h-7.25c.22 2.096 1.42 3.144 3.6 3.144.41 0 .88-.048 1.39-.144a5.428 5.428 0 0 0 1.49-.552c.41-.24.77-.312 1.05-.216.29.08.49.248.6.504.13.256.15.544.05.864-.08.304-.3.568-.67.792-.56.352-1.21.616-1.94.792-.72.16-1.4.24-2.02.24zm-.43-10.176c-.88 0-1.59.272-2.14.816-.54.544-.87 1.28-.98 2.208h5.9c-.06-.976-.33-1.72-.81-2.232-.47-.528-1.12-.792-1.97-.792zm11.52 10.176c-.85 0-1.61-.16-2.28-.48-.66-.336-1.18-.784-1.56-1.344-.37-.56-.55-1.192-.55-1.896 0-.864.22-1.544.67-2.04.45-.512 1.17-.88 2.18-1.104 1.01-.224 2.36-.336 4.06-.336h.84v-.504c0-.8-.18-1.376-.53-1.728-.35-.352-.94-.528-1.78-.528-.46 0-.96.056-1.51.168a7.98 7.98 0 0 0-1.68.576c-.38.176-.7.2-.96.072-.25-.144-.43-.36-.53-.648-.08-.304-.06-.608.05-.912.13-.304.38-.528.75-.672.73-.304 1.44-.52 2.11-.648.69-.128 1.31-.192 1.87-.192 1.71 0 2.98.4 3.82 1.2.83.784 1.24 2.008 1.24 3.672v5.76c0 1.024-.46 1.536-1.39 1.536-.94 0-1.41-.512-1.41-1.536v-.528a3.411 3.411 0 0 1-1.3 1.56c-.59.368-1.3.552-2.11.552zm.62-2.064c.79 0 1.43-.272 1.95-.816.52-.544.79-1.232.79-2.064v-.528h-.82c-1.5 0-2.55.12-3.14.36-.58.224-.87.64-.87 1.248 0 .528.19.96.56 1.296.36.336.88.504 1.53.504zm10.17 2.016c-1.02 0-1.53-.512-1.53-1.536v-9.072c0-1.008.49-1.512 1.46-1.512.98 0 1.47.504 1.47 1.512v.744c.57-1.376 1.8-2.144 3.69-2.304.69-.08 1.07.312 1.15 1.176.08.848-.33 1.32-1.24 1.416l-.53.048c-1.97.192-2.95 1.2-2.95 3.024v4.968c0 1.024-.51 1.536-1.52 1.536zm9.35 0c-.99 0-1.48-.512-1.48-1.536v-9.072c0-1.008.48-1.512 1.46-1.512s1.46.504 1.46 1.512v.504c.4-.672.94-1.184 1.61-1.536.69-.352 1.46-.528 2.31-.528 2.76 0 4.15 1.608 4.15 4.824v5.808c0 1.024-.5 1.536-1.49 1.536-1.01 0-1.51-.512-1.51-1.536v-5.664c0-.912-.18-1.576-.53-1.992-.34-.416-.86-.624-1.58-.624-.88 0-1.59.28-2.12.84-.51.544-.76 1.272-.76 2.184v5.256c0 1.024-.51 1.536-1.52 1.536zm20.8 0c-.93 0-1.39-.48-1.39-1.44V42.328c0-.96.48-1.44 1.44-1.44.4 0 .71.08.93.24.24.144.46.4.65.768l5.55 10.248 5.54-10.248c.19-.368.4-.624.62-.768.23-.16.54-.24.94-.24.93 0 1.39.48 1.39 1.44v14.424c0 .96-.46 1.44-1.39 1.44-.93 0-1.39-.48-1.39-1.44V46.6l-4.51 8.232c-.16.272-.33.472-.51.6-.17.128-.41.192-.72.192-.3 0-.55-.064-.74-.192a2.02 2.02 0 0 1-.51-.6l-4.51-8.184v10.104c0 .96-.46 1.44-1.39 1.44zm24.46.048c-1.22 0-2.27-.248-3.17-.744a5.271 5.271 0 0 1-2.09-2.112c-.49-.928-.74-2.016-.74-3.264 0-1.248.25-2.328.74-3.24.5-.912 1.2-1.616 2.09-2.112.9-.496 1.95-.744 3.17-.744s2.27.248 3.17.744c.89.496 1.59 1.2 2.09 2.112.49.912.74 1.992.74 3.24 0 1.248-.25 2.336-.74 3.264-.5.912-1.2 1.616-2.09 2.112-.9.496-1.95.744-3.17.744zm0-2.28c.9 0 1.62-.32 2.16-.96.54-.656.82-1.616.82-2.88 0-1.28-.28-2.232-.82-2.856-.54-.64-1.26-.96-2.16-.96-.9 0-1.62.32-2.16.96-.54.624-.82 1.576-.82 2.856 0 1.264.28 2.224.82 2.88.54.64 1.26.96 2.16.96zm10.01 2.232c-1.02 0-1.53-.512-1.53-1.536v-9.072c0-1.008.48-1.512 1.46-1.512s1.46.504 1.46 1.512v.744c.58-1.376 1.81-2.144 3.7-2.304.69-.08 1.07.312 1.15 1.176.08.848-.33 1.32-1.25 1.416l-.52.048c-1.97.192-2.96 1.2-2.96 3.024v4.968c0 1.024-.5 1.536-1.51 1.536zm13.46.048c-1.33 0-2.47-.248-3.43-.744s-1.71-1.2-2.23-2.112c-.52-.912-.77-1.992-.77-3.24 0-1.216.25-2.28.74-3.192a5.572 5.572 0 0 1 2.09-2.136c.9-.528 1.91-.792 3.05-.792 1.66 0 2.97.528 3.93 1.584.98 1.056 1.47 2.496 1.47 4.32 0 .592-.39.888-1.15.888h-7.25c.22 2.096 1.42 3.144 3.6 3.144.41 0 .88-.048 1.39-.144a5.428 5.428 0 0 0 1.49-.552c.41-.24.77-.312 1.05-.216.29.08.49.248.6.504.13.256.15.544.05.864-.08.304-.3.568-.67.792-.56.352-1.21.616-1.94.792-.72.16-1.4.24-2.02.24zm-.43-10.176c-.88 0-1.59.272-2.14.816-.54.544-.87 1.28-.98 2.208h5.9c-.06-.976-.33-1.72-.81-2.232-.47-.528-1.12-.792-1.97-.792z" fill="#fff"/><path d="m1356 57 4-6-4-6" stroke="#fff" stroke-linecap="round" stroke-linejoin="round" stroke-width="2"/><mask id="b" width="1440" height="100" x="0" y="0" maskUnits="userSpaceOnUse" style="mask-type:alpha"><rect fill="#fff" width="1440" height="100" rx="20"/></mask><g mask="url(#b)"><path d="m82.064 52.03 6.742 5.846-15.837 1.449s-5.594-1.117-5.336-1.315a13.453 13.453 0 0 1 14.43-5.98zm13.074 19.08-.327 7.735 5.173 1.159 3.968-7.959-8.814-.935z" fill="#fff" stroke="#707070" stroke-width=".7"/><path d="m56.23 74.217-5.85 13.367 6.97 4.692a90.58 90.58 0 0 1-.056 7.633 88.121 88.121 0 0 1-.743 7.724 32.557 32.557 0 0 0 42.965 4.482 111.592 111.592 0 0 1-2.366-20.489c.272-4.938.542-9.876.812-14.814l-2.15-11.797-13.13 4.674-9.222 1.65-17.23 2.878zM68.101 55.46c-.207.076-.415.163-.64.251a7.855 7.855 0 0 0 3.14-2.26 8.904 8.904 0 0 0 1.874-6.487 20.408 20.408 0 0 1-6.618-9.313 19.033 19.033 0 0 1-.951-7.257c.187-2.256.273-3.458 1.047-4.63 2.21-3.342 6.743-.885 11.917-4.584 3.553-2.558 4.083-4.917 6.192-4.817 3.836.185 6.13 8.14 6.332 8.899 1.001 3.848.9 7.9-.293 11.693a22.27 22.27 0 0 1-6.626 10.114 6.573 6.573 0 0 0 .56 4.834 6.845 6.845 0 0 0 3.8 2.87" fill="#fff"/><path d="M68.101 55.46c-.207.076-.415.163-.64.251a7.855 7.855 0 0 0 3.14-2.26 8.904 8.904 0 0 0 1.874-6.487 20.408 20.408 0 0 1-6.618-9.313 19.033 19.033 0 0 1-.951-7.257c.187-2.256.273-3.458 1.047-4.63 2.21-3.342 6.743-.885 11.917-4.584 3.553-2.558 4.083-4.917 6.192-4.817 3.836.185 6.13 8.14 6.332 8.899 1.001 3.848.9 7.9-.293 11.693a22.27 22.27 0 0 1-6.626 10.114 6.573 6.573 0 0 0 .56 4.834 6.845 6.845 0 0 0 3.8 2.87" stroke="#2D2D2D" stroke-miterlimit="10" stroke-width=".7"/><path d="M78.086 48.339c7.297-.069 13.138-8.066 13.045-17.861-.092-9.796-6.082-17.682-13.38-17.613-7.297.069-13.138 8.066-13.045 17.861.092 9.796 6.082 17.681 13.38 17.613z" fill="#fff" stroke="#2D2D2D" stroke-miterlimit="10" stroke-width=".7"/><path d="M52.606 118.461a50.958 50.958 0 0 0 4.841-17.692c.152-1.814.203-3.634.154-5.452m43.473 22.687a94.144 94.144 0 0 1-3.265-19.239s-.185-5.98-.082-8.694" stroke="#2D2D2D" stroke-linecap="round" stroke-miterlimit="10" stroke-width=".7"/><path d="M90.273 36.683c3.41-1.644 4.678-4.684 3.843-6.346-.672-1.339-2.632-1.627-3.092-1.683.221 2.7-.033 5.417-.75 8.029v0zm-25.217-.416c-3.213-1.591-4.357-4.631-3.47-6.336a4.197 4.197 0 0 1 3.115-1.734 22.986 22.986 0 0 0 .355 8.07v0z" fill="#fff" stroke="#2D2D2D" stroke-linecap="round" stroke-miterlimit="10" stroke-width=".7"/><path d="M79.799 79.576c-2.069.341-6.927 2.357-12.286 3.114l-17.758 2.23s-2.27 19.197 33.215 4.523c0 0 1.492-.687 1.363-1.951s-1.857-8.357-4.534-7.917z" fill="#C4C4C4" stroke="#2D2D2D" stroke-linecap="round" stroke-miterlimit="10" stroke-width=".7"/><path d="M61.368 77.762c.047 4.986 4.066 5.222 6.145 4.929 5.36-.757 10.217-2.773 12.285-3.114 2.678-.44 4.406 6.653 4.535 7.917.129 1.264-1.363 1.951-1.363 1.951-35.485 14.674-33.216-4.523-33.216-4.523.391-22.26 7.325-25.387 7.325-25.387 3.08-2.1 6.686-4.178 10.392-4.568a6.485 6.485 0 0 1 4.912.698c3.443 2.2 8.321 2.004 10.758.098a6.358 6.358 0 0 1 4.697-.988c.105.014.264.036.457.065a24.995 24.995 0 0 1 13.695 6.655c1.627 1.657 1.749 4.258 4.266 9.511" fill="#fff"/><path d="M61.368 77.762c.047 4.986 4.066 5.222 6.145 4.929 5.36-.757 10.217-2.773 12.285-3.114 2.678-.44 4.406 6.653 4.535 7.917.129 1.264-1.363 1.951-1.363 1.951-35.485 14.674-33.216-4.523-33.216-4.523.391-22.26 7.325-25.387 7.325-25.387 3.08-2.1 6.686-4.178 10.392-4.568a6.485 6.485 0 0 1 4.912.698c3.443 2.2 8.321 2.004 10.758.098a6.358 6.358 0 0 1 4.697-.988c.105.014.264.036.457.065a24.995 24.995 0 0 1 13.695 6.655c1.627 1.657 1.749 4.258 4.266 9.511" stroke="#2D2D2D" stroke-linecap="round" stroke-miterlimit="10" stroke-width=".7"/><path d="M91.086 67.454a53.405 53.405 0 0 0-2.777-12.611" stroke="#2D2D2D" stroke-linecap="round" stroke-miterlimit="10" stroke-width=".7"/><path d="M91.303 70.967a2.101 2.101 0 1 0-.04-4.203 2.101 2.101 0 0 0 .04 4.203z" fill="#FF8E93" stroke="#2D2D2D" stroke-miterlimit="10" stroke-width=".7"/><path d="M67.55 78.234a3.716 3.716 0 0 1-3.384.609c-3.812-1.792-3.2-16.396 1.492-18.002 4.859-1.667 14.61 10.43 12.567 14.046-.413.73-1.37 1.23-3.122 1.352" stroke="#2D2D2D" stroke-linecap="round" stroke-miterlimit="10" stroke-width=".7"/><path d="M67.25 79.845a1.54 1.54 0 1 0-.028-3.078 1.54 1.54 0 0 0 .029 3.078zm6.81-1.719a1.54 1.54 0 1 0-.03-3.079 1.54 1.54 0 0 0 .03 3.079z" fill="#FF8E93" stroke="#2D2D2D" stroke-miterlimit="10" stroke-width=".7"/><path d="M91.097 31.451c.045 2.873-.445 13.617-10.022 16.93a9.852 9.852 0 0 1-6.462.008c-4.032-1.405-10.293-5.535-9.892-17.502.008-.117-.13-.168-.01-.16l.01.16c-.096.354-.093.728.01 1.08 1.414 1.76 6.453-.738 12.45-.795 6.23-.058 12.155 2.126 13.854.814" fill="#86BCFF"/><path d="M91.097 31.451c.045 2.873-.445 13.617-10.022 16.93a9.852 9.852 0 0 1-6.462.008c-4.032-1.405-10.293-5.535-9.892-17.502.008-.117-.13-.168-.01-.16l.01.16c-.096.354-.093.728.01 1.08 1.414 1.76 6.453-.738 12.45-.795 6.23-.058 12.155 2.126 13.854.814" stroke="#2D2D2D" stroke-linecap="round" stroke-miterlimit="10" stroke-width=".7"/><path d="M96.388 81.017a8.189 8.189 0 0 0-1.101 5.908c.357 2.284 4.045 4.605 6.356 4.556a7.32 7.32 0 0 0 4.019-2.252c2.356-2.931.6-18.225.6-18.225" fill="#fff"/><path d="M96.388 81.017a8.189 8.189 0 0 0-1.101 5.908c.357 2.284 4.045 4.605 6.356 4.556a7.32 7.32 0 0 0 4.019-2.252c2.356-2.931.6-18.225.6-18.225" stroke="#2D2D2D" stroke-linecap="round" stroke-miterlimit="10" stroke-width=".7"/><path d="M97.264 83.196s.524 3.36 4.663 2.785c4.14-.574 3.107-13.307 4.215-15.028 1.107-1.721 5.501-5.187 6.888-7.029 1.387-1.842 3.195-3.985 3.195-3.985s3.598-5.875 4.138-8.24c0 0 .197-1.478-.996-1.29 0 0-.702.067-.84.303 0 0-.083-1.356-1.206-1.169a2.001 2.001 0 0 0-1.315 2.078 13.094 13.094 0 0 1-1.084 4.2s-.107-3.775-1.034-5.3a1.134 1.134 0 0 0-2.176.256c.075.53.675 4.537.614 5.364a2.315 2.315 0 0 1-.411 1.242s-.283-.232-.435-1.41c-.151-1.178-.524-3.536-1.787-3.23a1.142 1.142 0 0 0-.998 1.368 45.904 45.904 0 0 0-3.294 5.284c-1.102 2.252-3.872 6.527-4.283 7.652-.412 1.125-3.871 14.2-3.871 14.2a3.504 3.504 0 0 0 .017 1.95v0z" fill="#86BCFF" stroke="#2D2D2D" stroke-linecap="round" stroke-miterlimit="10" stroke-width=".7"/><path d="M108.809 54.163a9.242 9.242 0 0 1 .439 3.235c-.09 1.51.065 3.023.458 4.483" fill="#86BCFF"/><path d="M108.809 54.163a9.242 9.242 0 0 1 .439 3.235c-.09 1.51.065 3.023.458 4.483" stroke="#2D2D2D" stroke-linecap="round" stroke-miterlimit="10" stroke-width=".7"/><path d="M112.028 57.437s-.218.36.662 2.812z" fill="#86BCFF"/><path d="M112.028 57.437s-.218.36.662 2.812" stroke="#2D2D2D" stroke-linecap="round" stroke-miterlimit="10" stroke-width=".7"/><path d="M109.249 57.105c-.28.837-.472 1.7-.574 2.577z" fill="#86BCFF"/><path d="M109.249 57.105c-.28.837-.472 1.7-.574 2.577" stroke="#2D2D2D" stroke-linecap="round" stroke-miterlimit="10" stroke-width=".7"/><path d="M118.501 50.747a34.717 34.717 0 0 1-.778 3.55z" fill="#86BCFF"/><path d="M118.501 50.747a34.717 34.717 0 0 1-.778 3.55" stroke="#2D2D2D" stroke-linecap="round" stroke-miterlimit="10" stroke-width=".7"/><path d="M97.16 72.854s.258 2.94-.646 4.04" stroke="#2D2D2D" stroke-linecap="round" stroke-linejoin="bevel" stroke-width=".7"/><path d="M95.637 82.64a20.563 20.563 0 0 0 1.94-6.158s-.299-1.994 2.552-.99c2.85 1.005 5.157 1.385 6.169.775 1.011-.61 1.775.031 1.402.711a35.487 35.487 0 0 0-.845 6.716" fill="#fff"/><path d="M95.637 82.64a20.563 20.563 0 0 0 1.94-6.158s-.299-1.994 2.552-.99c2.85 1.005 5.157 1.385 6.169.775 1.011-.61 1.775.031 1.402.711a35.487 35.487 0 0 0-.845 6.716" stroke="#2D2D2D" stroke-linecap="round" stroke-linejoin="bevel" stroke-width=".7"/><path d="m105.206 82.157-.831 5.587-8.706-1.48 1.373-4.395 8.164.288z" fill="#fff"/><path d="M96.8 72.365a3.503 3.503 0 0 1 2.236 3.667c.033 4.98-2.733 4.684-2.733 4.684-.5 1.445-3.734 2.07-3.734 2.07-1.136 1.363-2.093.92-2.093.92a7.49 7.49 0 0 1-2.753.725 9.161 9.161 0 0 0-3.81 1.955c-.258.287-.579.51-.938.652-3.868-.25-4.602-3.541-4.694-5.496a1.511 1.511 0 0 1 1.133-1.532c1.091-.295 2.946-1.261 5.273-4.27 0-.005 3.862-5.433 12.113-3.375z" fill="#86BCFF" stroke="#2D2D2D" stroke-linecap="round" stroke-miterlimit="10" stroke-width=".7"/><path d="M87.221 78.075a17.8 17.8 0 0 0 1.881 1.746c.73.537-.799 1.725-.834 2.103-.035.377-.317 1.097.513 1.615.83.518 2.098-.648 2.599-1.696a3.64 3.64 0 0 0 .047-3.742 17.334 17.334 0 0 0-1.886-2.085" fill="#86BCFF"/><path d="M87.221 78.075a17.8 17.8 0 0 0 1.881 1.746c.73.537-.799 1.725-.834 2.103-.035.377-.317 1.097.513 1.615.83.518 2.098-.648 2.599-1.696a3.64 3.64 0 0 0 .047-3.742 17.334 17.334 0 0 0-1.886-2.085" stroke="#2D2D2D" stroke-linecap="round" stroke-miterlimit="10" stroke-width=".7"/><path d="M92.57 82.786a7.3 7.3 0 0 0 1.961-3.443 3.66 3.66 0 0 0-1.43-4.18" fill="#86BCFF"/><path d="M92.57 82.786a7.3 7.3 0 0 0 1.961-3.443 3.66 3.66 0 0 0-1.43-4.18" stroke="#2D2D2D" stroke-linecap="round" stroke-miterlimit="10" stroke-width=".7"/><path d="M96.15 81.02c1.542-1.982.977-4.086.852-6.005a2.958 2.958 0 0 0-.735-1.172" fill="#86BCFF"/><path d="M96.15 81.02c1.542-1.982.977-4.086.852-6.005a2.958 2.958 0 0 0-.735-1.172" stroke="#2D2D2D" stroke-linecap="round" stroke-miterlimit="10" stroke-width=".7"/><path d="M73.727 81.317s3.885-1.225 5.29-1.578c1.405-.352 1.385-.131 1.385-.131 4.68 2.044 3.81 8.637 3.81 8.637a3.283 3.283 0 0 1-1.844 1.448c-1.192.293-2.331.994-4.741 1.811" fill="#fff"/><path d="M73.727 81.317s3.885-1.225 5.29-1.578c1.405-.352 1.385-.131 1.385-.131 4.68 2.044 3.81 8.637 3.81 8.637a3.283 3.283 0 0 1-1.844 1.448c-1.192.293-2.331.994-4.741 1.811" stroke="#2D2D2D" stroke-linecap="round" stroke-linejoin="round" stroke-width=".7"/><path d="M64.702 28.197s1.452-4.76 5.127-4.184c3.674.576 14.146 1.334 15.84-3.574 0 0-14.32-3.902-18.94-.922 0 0-2.233 6.483-2.027 8.68z" fill="#474747" stroke="#2D2D2D" stroke-miterlimit="10" stroke-width=".7"/><path d="M64.811 26.122s1.786-5.11 13.055-4.942c11.268.168 12.53 4.08 12.53 4.08s.526 2.786 1.847.602c0 0 2.693-3.248 1.23-6.01 0 0-.195-4.55-3.407-5.853 0 0-2.024-4.847-6.682-4.31 0 0-5.802-2.948-9.992.06 0 0-6.325.363-7.511 4.149 0 0-2.974 1.693-2.49 6.352a5.513 5.513 0 0 0 1.42 5.872v0z" fill="#86BCFF" stroke="#2D2D2D" stroke-linecap="round" stroke-miterlimit="10" stroke-width=".7"/><path d="M65.653 60.84s-.308-4.518 1.813-5.873" stroke="#2D2D2D" stroke-linecap="round" stroke-miterlimit="10" stroke-width=".7"/><path d="m80.507 14.68-.884.014a.28.28 0 0 1-.284-.272l-.017-.841a.9.9 0 0 0-1.787-.002l.018.871a.28.28 0 0 1-.28.28l-.938.017a.891.891 0 0 0-.9.885.89.89 0 0 0 .935.84l.938-.026a.28.28 0 0 1 .296.263l.018.848a.86.86 0 0 0 .703.828.9.9 0 0 0 1.082-.852l-.017-.862a.278.278 0 0 1 .278-.28l.882-.024a.865.865 0 0 0 .856-.862.858.858 0 0 0-.89-.833l-.01.008z" fill="#FF8E93" stroke="#2D2D2D" stroke-miterlimit="10" stroke-width=".7"/></g><path d="M157.1 44.224c-.952 0-1.605-.504-1.96-1.512l-5.852-16.548c-.205-.597-.168-1.101.112-1.512.299-.41.793-.616 1.484-.616.504 0 .896.121 1.176.364.28.224.504.588.672 1.092l4.48 13.328 4.704-13.3c.355-.99.952-1.484 1.792-1.484.448 0 .803.121 1.064.364s.485.625.672 1.148l4.62 13.468 4.62-13.524c.168-.485.392-.85.672-1.092.28-.243.663-.364 1.148-.364.597 0 1.036.205 1.316.616.28.41.317.915.112 1.512l-5.908 16.576c-.187.504-.429.877-.728 1.12-.299.243-.7.364-1.204.364s-.905-.121-1.204-.364c-.299-.243-.541-.625-.728-1.148l-4.564-12.964-4.592 12.992c-.187.504-.429.877-.728 1.12-.28.243-.672.364-1.176.364zm28.359.056c-1.419 0-2.651-.29-3.696-.868a6.064 6.064 0 0 1-2.436-2.464c-.579-1.083-.868-2.352-.868-3.808s.289-2.716.868-3.78a6.064 6.064 0 0 1 2.436-2.464c1.045-.579 2.277-.868 3.696-.868 1.418 0 2.65.29 3.696.868a6.076 6.076 0 0 1 2.436 2.464c.578 1.064.868 2.324.868 3.78s-.29 2.725-.868 3.808a6.076 6.076 0 0 1-2.436 2.464c-1.046.579-2.278.868-3.696.868zm0-2.66c1.045 0 1.885-.373 2.52-1.12.634-.765.952-1.885.952-3.36 0-1.493-.318-2.604-.952-3.332-.635-.747-1.475-1.12-2.52-1.12-1.046 0-1.886.373-2.52 1.12-.635.728-.952 1.839-.952 3.332 0 1.475.317 2.595.952 3.36.634.747 1.474 1.12 2.52 1.12zm11.68 2.604c-1.194 0-1.792-.597-1.792-1.792V31.848c0-1.176.57-1.764 1.708-1.764 1.139 0 1.708.588 1.708 1.764v.868c.672-1.605 2.11-2.501 4.312-2.688.803-.093 1.251.364 1.344 1.372.094.99-.392 1.54-1.456 1.652l-.616.056c-2.296.224-3.444 1.4-3.444 3.528v5.796c0 1.195-.588 1.792-1.764 1.792zm10.965 0c-1.194 0-1.792-.597-1.792-1.792V31.848c0-1.176.57-1.764 1.708-1.764 1.139 0 1.708.588 1.708 1.764v.868c.672-1.605 2.11-2.501 4.312-2.688.803-.093 1.251.364 1.344 1.372.094.99-.392 1.54-1.456 1.652l-.616.056c-2.296.224-3.444 1.4-3.444 3.528v5.796c0 1.195-.588 1.792-1.764 1.792zm10.909-16.716c-.653 0-1.167-.159-1.54-.476-.355-.336-.532-.793-.532-1.372 0-.597.177-1.055.532-1.372.373-.317.887-.476 1.54-.476 1.381 0 2.072.616 2.072 1.848 0 1.232-.691 1.848-2.072 1.848zm0 16.688c-.56 0-.989-.168-1.288-.504-.299-.336-.448-.803-.448-1.4V32.016c0-1.27.579-1.904 1.736-1.904 1.176 0 1.764.635 1.764 1.904v10.276c0 .597-.149 1.064-.448 1.4-.299.336-.737.504-1.316.504zm12.149.084c-1.55 0-2.884-.29-4.004-.868a6.26 6.26 0 0 1-2.604-2.464c-.598-1.064-.896-2.324-.896-3.78 0-1.419.289-2.66.868-3.724a6.506 6.506 0 0 1 2.436-2.492c1.045-.616 2.23-.924 3.556-.924 1.941 0 3.472.616 4.592 1.848 1.138 1.232 1.708 2.912 1.708 5.04 0 .69-.448 1.036-1.344 1.036h-8.456c.261 2.445 1.661 3.668 4.2 3.668.485 0 1.026-.056 1.624-.168a6.27 6.27 0 0 0 1.736-.644c.485-.28.896-.364 1.232-.252.336.093.569.29.7.588.149.299.168.635.056 1.008-.094.355-.355.663-.784.924-.654.41-1.41.719-2.268.924-.84.187-1.624.28-2.352.28zm-.504-11.872c-1.027 0-1.858.317-2.492.952-.635.635-1.018 1.493-1.148 2.576h6.888c-.075-1.139-.392-2.007-.952-2.604-.542-.616-1.307-.924-2.296-.924zm14.196 11.872c-1.195 0-2.25-.29-3.164-.868-.896-.579-1.596-1.4-2.1-2.464-.504-1.083-.756-2.352-.756-3.808 0-1.475.252-2.735.756-3.78.504-1.064 1.204-1.885 2.1-2.464.914-.579 1.969-.868 3.164-.868.97 0 1.848.215 2.632.644.784.43 1.372.999 1.764 1.708V25.8c0-1.176.578-1.764 1.736-1.764 1.176 0 1.764.588 1.764 1.764v16.632c0 1.195-.579 1.792-1.736 1.792-1.158 0-1.736-.597-1.736-1.792v-.588c-.392.747-.98 1.344-1.764 1.792-.784.43-1.671.644-2.66.644zm.98-2.66c1.045 0 1.885-.373 2.52-1.12.634-.765.952-1.885.952-3.36 0-1.493-.318-2.604-.952-3.332-.635-.747-1.475-1.12-2.52-1.12-1.046 0-1.886.373-2.52 1.12-.635.728-.952 1.839-.952 3.332 0 1.475.317 2.595.952 3.36.634.747 1.474 1.12 2.52 1.12zm22.654 2.66c-.989 0-1.876-.187-2.66-.56-.765-.392-1.372-.915-1.82-1.568a3.941 3.941 0 0 1-.644-2.212c0-1.008.261-1.801.784-2.38.523-.597 1.372-1.027 2.548-1.288 1.176-.261 2.753-.392 4.732-.392h.98v-.588c0-.933-.205-1.605-.616-2.016-.411-.41-1.101-.616-2.072-.616a8.79 8.79 0 0 0-1.764.196 9.41 9.41 0 0 0-1.96.672c-.448.205-.821.233-1.12.084a1.31 1.31 0 0 1-.616-.756 1.734 1.734 0 0 1 .056-1.064c.149-.355.439-.616.868-.784.859-.355 1.68-.607 2.464-.756.803-.15 1.531-.224 2.184-.224 1.997 0 3.481.467 4.452 1.4.971.915 1.456 2.343 1.456 4.284v6.72c0 1.195-.541 1.792-1.624 1.792-1.101 0-1.652-.597-1.652-1.792v-.616a3.897 3.897 0 0 1-1.512 1.82c-.691.43-1.512.644-2.464.644zm.728-2.408c.915 0 1.671-.317 2.268-.952.616-.635.924-1.437.924-2.408v-.616h-.952c-1.755 0-2.977.14-3.668.42-.672.261-1.008.747-1.008 1.456 0 .616.215 1.12.644 1.512.429.392 1.027.588 1.792.588zm17.973 2.408c-1.008 0-1.904-.215-2.688-.644-.784-.448-1.372-1.045-1.764-1.792v.588c0 1.195-.57 1.792-1.708 1.792-1.158 0-1.736-.597-1.736-1.792V25.8c0-1.176.578-1.764 1.736-1.764 1.176 0 1.764.588 1.764 1.764v6.524c.41-.69.998-1.241 1.764-1.652.784-.43 1.661-.644 2.632-.644 1.213 0 2.268.29 3.164.868.896.579 1.596 1.4 2.1 2.464.504 1.045.756 2.305.756 3.78 0 1.456-.252 2.725-.756 3.808-.504 1.064-1.214 1.885-2.128 2.464-.896.579-1.942.868-3.136.868zm-.98-2.66c1.045 0 1.885-.373 2.52-1.12.634-.765.952-1.885.952-3.36 0-1.493-.318-2.604-.952-3.332-.635-.747-1.475-1.12-2.52-1.12-1.046 0-1.886.373-2.52 1.12-.635.728-.952 1.839-.952 3.332 0 1.475.317 2.595.952 3.36.634.747 1.474 1.12 2.52 1.12zm16.117 2.66c-1.419 0-2.651-.29-3.696-.868a6.064 6.064 0 0 1-2.436-2.464c-.579-1.083-.868-2.352-.868-3.808s.289-2.716.868-3.78a6.064 6.064 0 0 1 2.436-2.464c1.045-.579 2.277-.868 3.696-.868 1.418 0 2.65.29 3.696.868a6.076 6.076 0 0 1 2.436 2.464c.578 1.064.868 2.324.868 3.78s-.29 2.725-.868 3.808a6.076 6.076 0 0 1-2.436 2.464c-1.046.579-2.278.868-3.696.868zm0-2.66c1.045 0 1.885-.373 2.52-1.12.634-.765.952-1.885.952-3.36 0-1.493-.318-2.604-.952-3.332-.635-.747-1.475-1.12-2.52-1.12-1.046 0-1.886.373-2.52 1.12-.635.728-.952 1.839-.952 3.332 0 1.475.317 2.595.952 3.36.634.747 1.474 1.12 2.52 1.12zm14.845 2.66c-3.36 0-5.04-1.885-5.04-5.656v-6.776c0-1.176.578-1.764 1.736-1.764 1.176 0 1.764.588 1.764 1.764v6.832c0 .97.196 1.69.588 2.156.392.467 1.017.7 1.876.7.933 0 1.698-.317 2.296-.952.597-.653.896-1.512.896-2.576v-6.16c0-1.176.578-1.764 1.736-1.764 1.176 0 1.764.588 1.764 1.764v10.584c0 1.195-.57 1.792-1.708 1.792-1.139 0-1.708-.597-1.708-1.792v-.476c-.915 1.55-2.315 2.324-4.2 2.324zm17.53 0c-3.621 0-5.432-1.792-5.432-5.376V32.94h-1.456c-.933 0-1.4-.439-1.4-1.316s.467-1.316 1.4-1.316h1.456V27.76c0-1.176.588-1.764 1.764-1.764 1.158 0 1.736.588 1.736 1.764v2.548h2.968c.934 0 1.4.439 1.4 1.316s-.466 1.316-1.4 1.316h-2.968v5.768c0 .896.196 1.568.588 2.016.392.448 1.027.672 1.904.672.318 0 .598-.028.84-.084.243-.056.458-.093.644-.112a.64.64 0 0 1 .56.224c.15.15.224.467.224.952 0 .373-.065.71-.196 1.008-.112.28-.326.476-.644.588-.242.075-.56.14-.952.196a5.614 5.614 0 0 1-1.036.112zm18.46 5.04c-1.008 0-1.988-.093-2.94-.28a9.76 9.76 0 0 1-2.548-.868c-.448-.224-.719-.513-.812-.868a1.486 1.486 0 0 1 .112-.98 1.44 1.44 0 0 1 .672-.7c.317-.13.653-.112 1.008.056.821.41 1.596.672 2.324.784.747.13 1.381.196 1.904.196 2.501 0 3.752-1.204 3.752-3.612v-1.876c-.392.765-.999 1.372-1.82 1.82-.803.448-1.699.672-2.688.672-1.232 0-2.305-.28-3.22-.84-.915-.579-1.624-1.381-2.128-2.408s-.756-2.221-.756-3.584.252-2.548.756-3.556c.504-1.027 1.213-1.82 2.128-2.38.915-.579 1.988-.868 3.22-.868.989 0 1.885.215 2.688.644.803.43 1.391 1.017 1.764 1.764v-.588c0-.579.149-1.017.448-1.316.317-.299.747-.448 1.288-.448 1.157 0 1.736.588 1.736 1.764v10.78c0 2.221-.588 3.892-1.764 5.012-1.176 1.12-2.884 1.68-5.124 1.68zm-.084-8.316c1.083 0 1.941-.373 2.576-1.12.635-.747.952-1.764.952-3.052s-.317-2.296-.952-3.024c-.635-.747-1.493-1.12-2.576-1.12s-1.941.373-2.576 1.12c-.635.728-.952 1.736-.952 3.024s.317 2.305.952 3.052c.635.747 1.493 1.12 2.576 1.12zm17.346 3.276c-1.549 0-2.884-.29-4.004-.868a6.26 6.26 0 0 1-2.604-2.464c-.597-1.064-.896-2.324-.896-3.78 0-1.419.29-2.66.868-3.724a6.52 6.52 0 0 1 2.436-2.492c1.046-.616 2.231-.924 3.556-.924 1.942 0 3.472.616 4.592 1.848 1.139 1.232 1.708 2.912 1.708 5.04 0 .69-.448 1.036-1.344 1.036h-8.456c.262 2.445 1.662 3.668 4.2 3.668.486 0 1.027-.056 1.624-.168a6.259 6.259 0 0 0 1.736-.644c.486-.28.896-.364 1.232-.252.336.093.57.29.7.588.15.299.168.635.056 1.008-.093.355-.354.663-.784.924-.653.41-1.409.719-2.268.924-.84.187-1.624.28-2.352.28zm-.504-11.872c-1.026 0-1.857.317-2.492.952-.634.635-1.017 1.493-1.148 2.576h6.888c-.074-1.139-.392-2.007-.952-2.604-.541-.616-1.306-.924-2.296-.924zm15.15 11.872c-3.622 0-5.432-1.792-5.432-5.376V32.94h-1.456c-.934 0-1.4-.439-1.4-1.316s.466-1.316 1.4-1.316h1.456V27.76c0-1.176.588-1.764 1.764-1.764 1.157 0 1.736.588 1.736 1.764v2.548h2.968c.933 0 1.4.439 1.4 1.316s-.467 1.316-1.4 1.316h-2.968v5.768c0 .896.196 1.568.588 2.016.392.448 1.026.672 1.904.672.317 0 .597-.028.84-.084a5.25 5.25 0 0 1 .644-.112.641.641 0 0 1 .56.224c.149.15.224.467.224.952a2.5 2.5 0 0 1-.196 1.008c-.112.28-.327.476-.644.588-.243.075-.56.14-.952.196a5.623 5.623 0 0 1-1.036.112zm9.953 0c-3.622 0-5.432-1.792-5.432-5.376V32.94h-1.456c-.934 0-1.4-.439-1.4-1.316s.466-1.316 1.4-1.316h1.456V27.76c0-1.176.588-1.764 1.764-1.764 1.157 0 1.736.588 1.736 1.764v2.548h2.968c.933 0 1.4.439 1.4 1.316s-.467 1.316-1.4 1.316h-2.968v5.768c0 .896.196 1.568.588 2.016.392.448 1.026.672 1.904.672.317 0 .597-.028.84-.084a5.25 5.25 0 0 1 .644-.112.641.641 0 0 1 .56.224c.149.15.224.467.224.952a2.5 2.5 0 0 1-.196 1.008c-.112.28-.327.476-.644.588-.243.075-.56.14-.952.196a5.623 5.623 0 0 1-1.036.112zm6.565-16.772c-.653 0-1.166-.159-1.54-.476-.354-.336-.532-.793-.532-1.372 0-.597.178-1.055.532-1.372.374-.317.887-.476 1.54-.476 1.382 0 2.072.616 2.072 1.848 0 1.232-.69 1.848-2.072 1.848zm0 16.688c-.56 0-.989-.168-1.288-.504-.298-.336-.448-.803-.448-1.4V32.016c0-1.27.579-1.904 1.736-1.904 1.176 0 1.764.635 1.764 1.904v10.276c0 .597-.149 1.064-.448 1.4-.298.336-.737.504-1.316.504zm7.137.028c-1.157 0-1.736-.597-1.736-1.792V31.848c0-1.176.569-1.764 1.708-1.764s1.708.588 1.708 1.764v.588a4.68 4.68 0 0 1 1.876-1.792c.803-.41 1.699-.616 2.688-.616 3.229 0 4.844 1.876 4.844 5.628v6.776c0 1.195-.579 1.792-1.736 1.792-1.176 0-1.764-.597-1.764-1.792v-6.608c0-1.064-.205-1.839-.616-2.324-.392-.485-1.008-.728-1.848-.728-1.027 0-1.848.327-2.464.98-.597.635-.896 1.484-.896 2.548v6.132c0 1.195-.588 1.792-1.764 1.792zm21.027 5.096c-1.008 0-1.988-.093-2.94-.28a9.76 9.76 0 0 1-2.548-.868c-.448-.224-.719-.513-.812-.868a1.486 1.486 0 0 1 .112-.98 1.44 1.44 0 0 1 .672-.7c.317-.13.653-.112 1.008.056.821.41 1.596.672 2.324.784.747.13 1.381.196 1.904.196 2.501 0 3.752-1.204 3.752-3.612v-1.876c-.392.765-.999 1.372-1.82 1.82-.803.448-1.699.672-2.688.672-1.232 0-2.305-.28-3.22-.84-.915-.579-1.624-1.381-2.128-2.408s-.756-2.221-.756-3.584.252-2.548.756-3.556c.504-1.027 1.213-1.82 2.128-2.38.915-.579 1.988-.868 3.22-.868.989 0 1.885.215 2.688.644.803.43 1.391 1.017 1.764 1.764v-.588c0-.579.149-1.017.448-1.316.317-.299.747-.448 1.288-.448 1.157 0 1.736.588 1.736 1.764v10.78c0 2.221-.588 3.892-1.764 5.012-1.176 1.12-2.884 1.68-5.124 1.68zm-.084-8.316c1.083 0 1.941-.373 2.576-1.12.635-.747.952-1.764.952-3.052s-.317-2.296-.952-3.024c-.635-.747-1.493-1.12-2.576-1.12s-1.941.373-2.576 1.12c-.635.728-.952 1.736-.952 3.024s.317 2.305.952 3.052c.635.747 1.493 1.12 2.576 1.12zm21.672 8.26c-.635 0-1.073-.233-1.316-.7-.243-.467-.233-.999.028-1.596l1.596-3.528-4.788-11.032c-.261-.616-.261-1.157 0-1.624.261-.467.775-.7 1.54-.7.429 0 .775.103 1.036.308.261.187.495.55.7 1.092l3.36 8.4 3.444-8.428c.205-.523.448-.877.728-1.064.28-.205.653-.308 1.12-.308.597 0 1.017.233 1.26.7.243.467.233.999-.028 1.596l-6.804 15.54c-.243.523-.504.877-.784 1.064-.28.187-.644.28-1.092.28zm17.237-4.984c-1.419 0-2.651-.29-3.696-.868a6.064 6.064 0 0 1-2.436-2.464c-.579-1.083-.868-2.352-.868-3.808s.289-2.716.868-3.78a6.064 6.064 0 0 1 2.436-2.464c1.045-.579 2.277-.868 3.696-.868 1.418 0 2.65.29 3.696.868a6.076 6.076 0 0 1 2.436 2.464c.578 1.064.868 2.324.868 3.78s-.29 2.725-.868 3.808a6.076 6.076 0 0 1-2.436 2.464c-1.046.579-2.278.868-3.696.868zm0-2.66c1.045 0 1.885-.373 2.52-1.12.634-.765.952-1.885.952-3.36 0-1.493-.318-2.604-.952-3.332-.635-.747-1.475-1.12-2.52-1.12-1.046 0-1.886.373-2.52 1.12-.635.728-.952 1.839-.952 3.332 0 1.475.317 2.595.952 3.36.634.747 1.474 1.12 2.52 1.12zm14.845 2.66c-3.36 0-5.04-1.885-5.04-5.656v-6.776c0-1.176.578-1.764 1.736-1.764 1.176 0 1.764.588 1.764 1.764v6.832c0 .97.196 1.69.588 2.156.392.467 1.017.7 1.876.7.933 0 1.698-.317 2.296-.952.597-.653.896-1.512.896-2.576v-6.16c0-1.176.578-1.764 1.736-1.764 1.176 0 1.764.588 1.764 1.764v10.584c0 1.195-.57 1.792-1.708 1.792-1.139 0-1.708-.597-1.708-1.792v-.476c-.915 1.55-2.315 2.324-4.2 2.324zm13.05-.056c-1.194 0-1.792-.597-1.792-1.792V31.848c0-1.176.57-1.764 1.708-1.764 1.139 0 1.708.588 1.708 1.764v.868c.672-1.605 2.11-2.501 4.312-2.688.803-.093 1.251.364 1.344 1.372.094.99-.392 1.54-1.456 1.652l-.616.056c-2.296.224-3.444 1.4-3.444 3.528v5.796c0 1.195-.588 1.792-1.764 1.792zm23.915.056c-1.251 0-2.474-.14-3.668-.42-1.176-.28-2.203-.7-3.08-1.26-.43-.28-.691-.625-.784-1.036a1.83 1.83 0 0 1 .084-1.148c.168-.373.42-.625.756-.756.354-.15.756-.084 1.204.196.821.485 1.689.84 2.604 1.064.914.224 1.876.336 2.884.336 1.474 0 2.548-.243 3.22-.728.672-.504 1.008-1.148 1.008-1.932 0-.653-.243-1.167-.728-1.54-.467-.373-1.279-.681-2.436-.924l-3.08-.644c-3.51-.747-5.264-2.548-5.264-5.404 0-1.232.326-2.305.98-3.22.653-.915 1.558-1.624 2.716-2.128 1.157-.504 2.492-.756 4.004-.756 1.12 0 2.184.14 3.192.42 1.008.28 1.913.69 2.716 1.232.373.261.597.588.672.98.074.373.028.728-.14 1.064-.168.317-.439.541-.812.672-.355.112-.775.028-1.26-.252a7.98 7.98 0 0 0-2.1-.84 9.954 9.954 0 0 0-2.296-.252c-1.288 0-2.296.27-3.024.812-.728.541-1.092 1.25-1.092 2.128 0 .672.224 1.213.672 1.624.448.392 1.213.7 2.296.924l3.052.644c1.848.392 3.22 1.008 4.116 1.848.914.84 1.372 1.96 1.372 3.36 0 1.176-.318 2.212-.952 3.108-.635.896-1.54 1.596-2.716 2.1-1.158.485-2.53.728-4.116.728zm15.48 0c-3.36 0-5.04-1.885-5.04-5.656v-6.776c0-1.176.579-1.764 1.736-1.764 1.176 0 1.764.588 1.764 1.764v6.832c0 .97.196 1.69.588 2.156.392.467 1.017.7 1.876.7.933 0 1.699-.317 2.296-.952.597-.653.896-1.512.896-2.576v-6.16c0-1.176.579-1.764 1.736-1.764 1.176 0 1.764.588 1.764 1.764v10.584c0 1.195-.569 1.792-1.708 1.792s-1.708-.597-1.708-1.792v-.476c-.915 1.55-2.315 2.324-4.2 2.324zm13.051-.056c-1.195 0-1.792-.597-1.792-1.792V31.848c0-1.176.569-1.764 1.708-1.764 1.138 0 1.708.588 1.708 1.764v.868c.672-1.605 2.109-2.501 4.312-2.688.802-.093 1.25.364 1.344 1.372.093.99-.392 1.54-1.456 1.652l-.616.056c-2.296.224-3.444 1.4-3.444 3.528v5.796c0 1.195-.588 1.792-1.764 1.792zm15.338 5.096c-1.008 0-1.988-.093-2.94-.28a9.747 9.747 0 0 1-2.548-.868c-.448-.224-.719-.513-.812-.868a1.48 1.48 0 0 1 .112-.98 1.44 1.44 0 0 1 .672-.7c.317-.13.653-.112 1.008.056.821.41 1.596.672 2.324.784.746.13 1.381.196 1.904.196 2.501 0 3.752-1.204 3.752-3.612v-1.876c-.392.765-.999 1.372-1.82 1.82-.803.448-1.699.672-2.688.672-1.232 0-2.306-.28-3.22-.84-.915-.579-1.624-1.381-2.128-2.408s-.756-2.221-.756-3.584.252-2.548.756-3.556c.504-1.027 1.213-1.82 2.128-2.38.914-.579 1.988-.868 3.22-.868.989 0 1.885.215 2.688.644.802.43 1.39 1.017 1.764 1.764v-.588c0-.579.149-1.017.448-1.316.317-.299.746-.448 1.288-.448 1.157 0 1.736.588 1.736 1.764v10.78c0 2.221-.588 3.892-1.764 5.012-1.176 1.12-2.884 1.68-5.124 1.68zm-.084-8.316c1.082 0 1.941-.373 2.576-1.12.634-.747.952-1.764.952-3.052s-.318-2.296-.952-3.024c-.635-.747-1.494-1.12-2.576-1.12-1.083 0-1.942.373-2.576 1.12-.635.728-.952 1.736-.952 3.024s.317 2.305.952 3.052c.634.747 1.493 1.12 2.576 1.12zm17.346 3.276c-1.549 0-2.884-.29-4.004-.868a6.26 6.26 0 0 1-2.604-2.464c-.597-1.064-.896-2.324-.896-3.78 0-1.419.29-2.66.868-3.724a6.52 6.52 0 0 1 2.436-2.492c1.046-.616 2.231-.924 3.556-.924 1.942 0 3.472.616 4.592 1.848 1.139 1.232 1.708 2.912 1.708 5.04 0 .69-.448 1.036-1.344 1.036h-8.456c.262 2.445 1.662 3.668 4.2 3.668.486 0 1.027-.056 1.624-.168a6.259 6.259 0 0 0 1.736-.644c.486-.28.896-.364 1.232-.252.336.093.57.29.7.588.15.299.168.635.056 1.008-.093.355-.354.663-.784.924-.653.41-1.409.719-2.268.924-.84.187-1.624.28-2.352.28zm-.504-11.872c-1.026 0-1.857.317-2.492.952-.634.635-1.017 1.493-1.148 2.576h6.888c-.074-1.139-.392-2.007-.952-2.604-.541-.616-1.306-.924-2.296-.924zm10.724 11.816c-1.195 0-1.792-.597-1.792-1.792V31.848c0-1.176.569-1.764 1.708-1.764s1.708.588 1.708 1.764v.868c.672-1.605 2.109-2.501 4.312-2.688.803-.093 1.251.364 1.344 1.372.093.99-.392 1.54-1.456 1.652l-.616.056c-2.296.224-3.444 1.4-3.444 3.528v5.796c0 1.195-.588 1.792-1.764 1.792zm13.493 5.04c-.635 0-1.074-.233-1.316-.7-.243-.467-.234-.999.028-1.596l1.596-3.528-4.788-11.032c-.262-.616-.262-1.157 0-1.624.261-.467.774-.7 1.54-.7.429 0 .774.103 1.036.308.261.187.494.55.7 1.092l3.36 8.4 3.444-8.428c.205-.523.448-.877.728-1.064.28-.205.653-.308 1.12-.308.597 0 1.017.233 1.26.7.242.467.233.999-.028 1.596l-6.804 15.54c-.243.523-.504.877-.784 1.064-.28.187-.644.28-1.092.28zm24.131-4.984c-1.194 0-2.249-.29-3.164-.868-.896-.579-1.596-1.4-2.1-2.464-.504-1.083-.756-2.352-.756-3.808 0-1.475.252-2.735.756-3.78.504-1.064 1.204-1.885 2.1-2.464.915-.579 1.97-.868 3.164-.868.971 0 1.848.215 2.632.644.784.43 1.372.999 1.764 1.708V25.8c0-1.176.579-1.764 1.736-1.764 1.176 0 1.764.588 1.764 1.764v16.632c0 1.195-.578 1.792-1.736 1.792-1.157 0-1.736-.597-1.736-1.792v-.588c-.392.747-.98 1.344-1.764 1.792-.784.43-1.67.644-2.66.644zm.98-2.66c1.046 0 1.886-.373 2.52-1.12.635-.765.952-1.885.952-3.36 0-1.493-.317-2.604-.952-3.332-.634-.747-1.474-1.12-2.52-1.12-1.045 0-1.885.373-2.52 1.12-.634.728-.952 1.839-.952 3.332 0 1.475.318 2.595.952 3.36.635.747 1.475 1.12 2.52 1.12zm16.789 2.66c-1.418 0-2.65-.29-3.696-.868a6.076 6.076 0 0 1-2.436-2.464c-.578-1.083-.868-2.352-.868-3.808s.29-2.716.868-3.78a6.076 6.076 0 0 1 2.436-2.464c1.046-.579 2.278-.868 3.696-.868 1.419 0 2.651.29 3.696.868a6.064 6.064 0 0 1 2.436 2.464c.579 1.064.868 2.324.868 3.78s-.289 2.725-.868 3.808a6.064 6.064 0 0 1-2.436 2.464c-1.045.579-2.277.868-3.696.868zm0-2.66c1.046 0 1.886-.373 2.52-1.12.635-.765.952-1.885.952-3.36 0-1.493-.317-2.604-.952-3.332-.634-.747-1.474-1.12-2.52-1.12-1.045 0-1.885.373-2.52 1.12-.634.728-.952 1.839-.952 3.332 0 1.475.318 2.595.952 3.36.635.747 1.475 1.12 2.52 1.12zm11.625 2.604c-1.157 0-1.736-.597-1.736-1.792V31.848c0-1.176.57-1.764 1.708-1.764 1.139 0 1.708.588 1.708 1.764v.588a4.68 4.68 0 0 1 1.876-1.792c.803-.41 1.699-.616 2.688-.616 3.23 0 4.844 1.876 4.844 5.628v6.776c0 1.195-.578 1.792-1.736 1.792-1.176 0-1.764-.597-1.764-1.792v-6.608c0-1.064-.205-1.839-.616-2.324-.392-.485-1.008-.728-1.848-.728-1.026 0-1.848.327-2.464.98-.597.635-.896 1.484-.896 2.548v6.132c0 1.195-.588 1.792-1.764 1.792zm21.391.056c-1.549 0-2.884-.29-4.004-.868a6.26 6.26 0 0 1-2.604-2.464c-.597-1.064-.896-2.324-.896-3.78 0-1.419.289-2.66.868-3.724a6.506 6.506 0 0 1 2.436-2.492c1.045-.616 2.231-.924 3.556-.924 1.941 0 3.472.616 4.592 1.848 1.139 1.232 1.708 2.912 1.708 5.04 0 .69-.448 1.036-1.344 1.036h-8.456c.261 2.445 1.661 3.668 4.2 3.668.485 0 1.027-.056 1.624-.168a6.259 6.259 0 0 0 1.736-.644c.485-.28.896-.364 1.232-.252.336.093.569.29.7.588.149.299.168.635.056 1.008-.093.355-.355.663-.784.924-.653.41-1.409.719-2.268.924-.84.187-1.624.28-2.352.28zm-.504-11.872c-1.027 0-1.857.317-2.492.952s-1.017 1.493-1.148 2.576h6.888c-.075-1.139-.392-2.007-.952-2.604-.541-.616-1.307-.924-2.296-.924zm13.082 5.88c-.354 0-.634-.112-.84-.336-.186-.243-.28-.56-.28-.952 0-.859.159-1.661.476-2.408.336-.747.896-1.559 1.68-2.436.598-.653 1.008-1.213 1.232-1.68.243-.467.364-.961.364-1.484 0-.616-.224-1.101-.672-1.456-.448-.355-1.082-.532-1.904-.532-.746 0-1.428.103-2.044.308a9.106 9.106 0 0 0-1.82.812c-.504.299-.952.401-1.344.308a1.278 1.278 0 0 1-.812-.672c-.168-.336-.196-.71-.084-1.12.112-.41.411-.775.896-1.092.766-.504 1.643-.887 2.632-1.148.99-.28 1.923-.42 2.8-.42 1.176 0 2.203.196 3.08.588.896.392 1.587.933 2.072 1.624.504.69.756 1.503.756 2.436 0 .859-.196 1.661-.588 2.408-.373.747-1.045 1.559-2.016 2.436-.877.803-1.484 1.493-1.82 2.072a5.092 5.092 0 0 0-.644 1.848.877.877 0 0 1-.336.644c-.186.168-.448.252-.784.252zm-.056 5.852c-.634 0-1.148-.196-1.54-.588-.373-.392-.56-.896-.56-1.512 0-.597.187-1.083.56-1.456.392-.392.906-.588 1.54-.588.654 0 1.158.196 1.512.588.374.373.56.859.56 1.456 0 .616-.186 1.12-.56 1.512-.354.392-.858.588-1.512.588zm-542.128 32c-.507 0-.76-.267-.76-.8V62.56c0-.533.253-.8.76-.8.213 0 .38.047.5.14.133.08.253.22.36.42l5.18 9.76 5.16-9.76c.107-.2.22-.34.34-.42.12-.093.293-.14.52-.14.493 0 .74.267.74.8v12.78c0 .533-.253.8-.76.8s-.76-.267-.76-.8V64.98l-4.52 8.5a1.14 1.14 0 0 1-.3.38c-.093.067-.233.1-.42.1-.187 0-.333-.04-.44-.12a.992.992 0 0 1-.28-.36L151.28 65v10.34c0 .533-.247.8-.74.8zm20.469.04c-1.533 0-2.746-.447-3.64-1.34-.893-.907-1.34-2.133-1.34-3.68 0-1 .2-1.88.6-2.64.4-.773.947-1.367 1.64-1.78.707-.427 1.52-.64 2.44-.64 1.32 0 2.354.427 3.1 1.28.747.84 1.12 2 1.12 3.48 0 .413-.233.62-.7.62h-6.62c.054 1.107.374 1.953.96 2.54.587.573 1.4.86 2.44.86.44 0 .887-.053 1.34-.16a4.23 4.23 0 0 0 1.32-.62c.307-.2.56-.24.76-.12.214.12.32.307.32.56.014.24-.12.453-.4.64a4.94 4.94 0 0 1-1.58.74c-.6.173-1.186.26-1.76.26zm-.26-8.88c-.92 0-1.646.287-2.18.86-.533.573-.846 1.327-.94 2.26h5.9c-.04-.987-.3-1.753-.78-2.3-.466-.547-1.133-.82-2-.82zm10.225 8.88c-.867 0-1.627-.207-2.28-.62-.64-.413-1.14-.993-1.5-1.74-.347-.76-.52-1.653-.52-2.68 0-1.04.173-1.933.52-2.68.36-.76.86-1.34 1.5-1.74.653-.413 1.413-.62 2.28-.62.76 0 1.427.167 2 .5a3.09 3.09 0 0 1 1.3 1.38v-5.4c0-.547.273-.82.82-.82.533 0 .8.273.8.82V75.3c0 .56-.267.84-.8.84s-.8-.28-.8-.84v-1.04a3.304 3.304 0 0 1-1.32 1.42c-.573.333-1.24.5-2 .5zm.34-1.3c.907 0 1.633-.32 2.18-.96.547-.653.82-1.58.82-2.78 0-1.213-.273-2.14-.82-2.78-.547-.64-1.273-.96-2.18-.96-.92 0-1.653.32-2.2.96-.533.64-.8 1.567-.8 2.78 0 1.2.267 2.127.8 2.78.547.64 1.28.96 2.2.96zm8.42-10.94c-.707 0-1.06-.333-1.06-1 0-.653.353-.98 1.06-.98.707 0 1.06.327 1.06.98 0 .667-.353 1-1.06 1zm0 12.16c-.533 0-.8-.293-.8-.88v-8.18c0-.573.267-.86.8-.86.547 0 .82.287.82.86v8.18c0 .587-.273.88-.82.88zm4.968-.1c-.599 0-.899-.3-.899-.9V62.8c0-.6.3-.9.899-.9h4.741c1.453 0 2.573.327 3.36.98.8.64 1.2 1.54 1.2 2.7 0 .773-.2 1.433-.6 1.98-.4.547-.954.947-1.66 1.2.813.213 1.446.607 1.9 1.18.466.573.7 1.3.7 2.18 0 1.253-.407 2.213-1.22 2.88-.814.667-1.96 1-3.44 1h-4.981zm.701-7.8h3.8c2.12 0 3.18-.827 3.18-2.48 0-1.667-1.06-2.5-3.18-2.5h-3.8v4.98zm0 6.48h4.12c2.133 0 3.2-.86 3.2-2.58 0-1.72-1.067-2.58-3.2-2.58h-4.12v5.16zm15.135 1.5c-2.333 0-3.5-1.287-3.5-3.86v-5.36c0-.547.267-.82.8-.82.547 0 .82.273.82.82v5.34c0 .867.173 1.507.52 1.92.36.413.92.62 1.68.62.827 0 1.5-.273 2.02-.82.52-.56.78-1.3.78-2.22v-4.84c0-.547.273-.82.82-.82.533 0 .8.273.8.82v8.34c0 .56-.26.84-.78.84-.533 0-.8-.28-.8-.84v-.94a3.282 3.282 0 0 1-1.3 1.36c-.547.307-1.167.46-1.86.46zm11.471 0c-.867 0-1.627-.207-2.28-.62-.64-.413-1.14-.993-1.5-1.74-.347-.76-.52-1.653-.52-2.68 0-1.04.173-1.933.52-2.68.36-.76.86-1.34 1.5-1.74.653-.413 1.413-.62 2.28-.62.76 0 1.427.167 2 .5a3.09 3.09 0 0 1 1.3 1.38v-5.4c0-.547.273-.82.82-.82.533 0 .8.273.8.82V75.3c0 .56-.267.84-.8.84s-.8-.28-.8-.84v-1.04a3.304 3.304 0 0 1-1.32 1.42c-.573.333-1.24.5-2 .5zm.34-1.3c.907 0 1.633-.32 2.18-.96.547-.653.82-1.58.82-2.78 0-1.213-.273-2.14-.82-2.78-.547-.64-1.273-.96-2.18-.96-.92 0-1.653.32-2.2.96-.533.64-.8 1.567-.8 2.78 0 1.2.267 2.127.8 2.78.547.64 1.28.96 2.2.96zm11.32 1.3c-.866 0-1.626-.207-2.28-.62-.64-.413-1.14-.993-1.5-1.74-.346-.76-.52-1.653-.52-2.68 0-1.04.174-1.933.52-2.68.36-.76.86-1.34 1.5-1.74.654-.413 1.414-.62 2.28-.62.76 0 1.427.167 2 .5a3.09 3.09 0 0 1 1.3 1.38v-5.4c0-.547.274-.82.82-.82.534 0 .8.273.8.82V75.3c0 .56-.266.84-.8.84-.533 0-.8-.28-.8-.84v-1.04a3.304 3.304 0 0 1-1.32 1.42c-.573.333-1.24.5-2 .5zm.34-1.3c.907 0 1.634-.32 2.18-.96.547-.653.82-1.58.82-2.78 0-1.213-.273-2.14-.82-2.78-.546-.64-1.273-.96-2.18-.96-.92 0-1.653.32-2.2.96-.533.64-.8 1.567-.8 2.78 0 1.2.267 2.127.8 2.78.547.64 1.28.96 2.2.96zm9.78 4.86c-.306 0-.513-.12-.62-.36-.106-.227-.1-.487.02-.78l1.22-2.76-3.68-8.56c-.133-.307-.14-.573-.02-.8.134-.227.38-.34.74-.34.374 0 .647.213.82.64l3.02 7.38 3.04-7.38c.107-.24.22-.407.34-.5.12-.093.294-.14.52-.14.307 0 .514.113.62.34.107.227.1.487-.02.78l-5.12 11.84c-.106.24-.226.407-.36.5-.12.093-.293.14-.52.14zm14.07-15.8c-.707 0-1.06-.333-1.06-1 0-.653.353-.98 1.06-.98.707 0 1.06.327 1.06.98 0 .667-.353 1-1.06 1zm0 12.16c-.533 0-.8-.293-.8-.88v-8.18c0-.573.267-.86.8-.86.547 0 .82.287.82.86v8.18c0 .587-.273.88-.82.88zm7.129.08c-.6 0-1.207-.073-1.82-.22-.6-.16-1.16-.413-1.68-.76-.24-.147-.36-.333-.36-.56a.717.717 0 0 1 .28-.56c.173-.133.393-.133.66 0 .52.32 1.02.547 1.5.68.493.12.98.18 1.46.18.76 0 1.333-.14 1.72-.42.386-.28.58-.66.58-1.14 0-.373-.127-.667-.38-.88-.254-.227-.654-.4-1.2-.52l-1.82-.4c-1.654-.36-2.48-1.213-2.48-2.56 0-.88.346-1.587 1.04-2.12.706-.533 1.626-.8 2.76-.8.573 0 1.126.08 1.66.24a4.072 4.072 0 0 1 1.44.72c.226.16.326.353.3.58a.747.747 0 0 1-.32.54c-.174.12-.387.1-.64-.06a4.42 4.42 0 0 0-1.22-.58c-.414-.133-.82-.2-1.22-.2-.747 0-1.314.147-1.7.44-.387.293-.58.68-.58 1.16 0 .747.493 1.227 1.48 1.44l1.82.38c.853.187 1.5.487 1.94.9.44.4.66.947.66 1.64 0 .893-.354 1.6-1.06 2.12-.707.507-1.647.76-2.82.76zm12.305-.04c-.534 0-.8-.28-.8-.84V62.58c0-.547.266-.82.8-.82.546 0 .82.273.82.82v5.3a3.118 3.118 0 0 1 1.34-1.32 4.164 4.164 0 0 1 1.96-.46c2.306 0 3.46 1.28 3.46 3.84v5.36c0 .56-.267.84-.8.84-.547 0-.82-.28-.82-.84v-5.26c0-.907-.18-1.567-.54-1.98-.347-.427-.907-.64-1.68-.64-.894 0-1.607.28-2.14.84-.52.547-.78 1.28-.78 2.2v4.84c0 .56-.274.84-.82.84zm14.947.04c-1.533 0-2.747-.447-3.64-1.34-.893-.907-1.34-2.133-1.34-3.68 0-1 .2-1.88.6-2.64.4-.773.947-1.367 1.64-1.78.707-.427 1.52-.64 2.44-.64 1.32 0 2.353.427 3.1 1.28.747.84 1.12 2 1.12 3.48 0 .413-.233.62-.7.62h-6.62c.053 1.107.373 1.953.96 2.54.587.573 1.4.86 2.44.86.44 0 .887-.053 1.34-.16a4.25 4.25 0 0 0 1.32-.62c.307-.2.56-.24.76-.12a.6.6 0 0 1 .32.56c.013.24-.12.453-.4.64a4.95 4.95 0 0 1-1.58.74c-.6.173-1.187.26-1.76.26zm-.26-8.88c-.92 0-1.647.287-2.18.86-.533.573-.847 1.327-.94 2.26h5.9c-.04-.987-.3-1.753-.78-2.3-.467-.547-1.133-.82-2-.82zm7.344 8.84c-.546 0-.82-.28-.82-.84v-8.34c0-.547.26-.82.78-.82.534 0 .8.273.8.82v1.06c.267-.613.68-1.08 1.24-1.4.56-.333 1.227-.513 2-.54.427-.04.654.173.68.64.04.467-.2.727-.72.78l-.32.04c-.92.08-1.62.373-2.1.88-.48.493-.72 1.173-.72 2.04v4.84c0 .56-.273.84-.82.84zm10.611.04c-1.533 0-2.747-.447-3.64-1.34-.893-.907-1.34-2.133-1.34-3.68 0-1 .2-1.88.6-2.64.4-.773.947-1.367 1.64-1.78.707-.427 1.52-.64 2.44-.64 1.32 0 2.353.427 3.1 1.28.747.84 1.12 2 1.12 3.48 0 .413-.233.62-.7.62h-6.62c.053 1.107.373 1.953.96 2.54.587.573 1.4.86 2.44.86.44 0 .887-.053 1.34-.16a4.25 4.25 0 0 0 1.32-.62c.307-.2.56-.24.76-.12a.6.6 0 0 1 .32.56c.013.24-.12.453-.4.64a4.95 4.95 0 0 1-1.58.74c-.6.173-1.187.26-1.76.26zm-.26-8.88c-.92 0-1.647.287-2.18.86-.533.573-.847 1.327-.94 2.26h5.9c-.04-.987-.3-1.753-.78-2.3-.467-.547-1.133-.82-2-.82zm15.581 8.88c-1.147 0-2.007-.3-2.58-.9-.573-.613-.86-1.493-.86-2.64v-5.1h-1.34c-.467 0-.7-.213-.7-.64 0-.413.233-.62.7-.62h1.34v-2.3c0-.547.273-.82.82-.82.533 0 .8.273.8.82v2.3h2.52c.467 0 .7.207.7.62 0 .427-.233.64-.7.64h-2.52v4.94c0 .76.16 1.34.48 1.74.32.387.84.58 1.56.58.253 0 .467-.027.64-.08a1.59 1.59 0 0 1 .46-.08c.12-.013.22.027.3.12.08.093.12.253.12.48 0 .16-.033.307-.1.44a.48.48 0 0 1-.3.28c-.16.053-.373.1-.64.14a3.44 3.44 0 0 1-.7.08zm7.034 0c-.946 0-1.766-.207-2.46-.62a4.26 4.26 0 0 1-1.62-1.74c-.373-.76-.56-1.653-.56-2.68 0-1.027.187-1.913.56-2.66.387-.76.927-1.347 1.62-1.76.694-.413 1.514-.62 2.46-.62.934 0 1.747.207 2.44.62.707.413 1.247 1 1.62 1.76.387.747.58 1.633.58 2.66 0 1.027-.193 1.92-.58 2.68a4.083 4.083 0 0 1-1.62 1.74c-.693.413-1.506.62-2.44.62zm0-1.3c.907 0 1.634-.32 2.18-.96.547-.653.82-1.58.82-2.78 0-1.213-.273-2.14-.82-2.78-.546-.64-1.273-.96-2.18-.96-.92 0-1.653.32-2.2.96-.533.64-.8 1.567-.8 2.78 0 1.2.267 2.127.8 2.78.547.64 1.28.96 2.2.96zm17.11 1.32c-.893 0-1.767-.1-2.62-.3-.84-.2-1.573-.5-2.2-.9-.307-.2-.493-.447-.56-.74a1.31 1.31 0 0 1 .06-.82c.12-.267.3-.447.54-.54.253-.107.54-.06.86.14a6.84 6.84 0 0 0 1.86.76c.653.16 1.34.24 2.06.24 1.053 0 1.82-.173 2.3-.52.48-.36.72-.82.72-1.38 0-.467-.173-.833-.52-1.1-.333-.267-.913-.487-1.74-.66l-2.2-.46c-2.507-.533-3.76-1.82-3.76-3.86 0-.88.233-1.647.7-2.3.467-.653 1.113-1.16 1.94-1.52.827-.36 1.78-.54 2.86-.54.8 0 1.56.1 2.28.3.72.2 1.367.493 1.94.88.267.187.427.42.48.7.053.267.02.52-.1.76a.998.998 0 0 1-.58.48c-.253.08-.553.02-.9-.18a5.685 5.685 0 0 0-1.5-.6 7.105 7.105 0 0 0-1.64-.18c-.92 0-1.64.193-2.16.58-.52.387-.78.893-.78 1.52 0 .48.16.867.48 1.16.32.28.867.5 1.64.66l2.18.46c1.32.28 2.3.72 2.94 1.32.653.6.98 1.4.98 2.4 0 .84-.227 1.58-.68 2.22-.453.64-1.1 1.14-1.94 1.5-.827.347-1.807.52-2.94.52zm8.757-11.98c-.466 0-.833-.113-1.1-.34-.253-.24-.38-.567-.38-.98 0-.427.127-.753.38-.98.267-.227.634-.34 1.1-.34.987 0 1.48.44 1.48 1.32 0 .88-.493 1.32-1.48 1.32zm0 11.92c-.4 0-.706-.12-.92-.36-.213-.24-.32-.573-.32-1v-7.34c0-.907.414-1.36 1.24-1.36.84 0 1.26.453 1.26 1.36v7.34c0 .427-.106.76-.32 1-.213.24-.526.36-.94.36zm5.138.02c-.827 0-1.24-.427-1.24-1.28v-7.56c0-.84.407-1.26 1.22-1.26s1.22.42 1.22 1.26v.4c.293-.533.7-.947 1.22-1.24.52-.307 1.12-.46 1.8-.46 1.467 0 2.427.64 2.88 1.92.307-.6.747-1.067 1.32-1.4.573-.347 1.227-.52 1.96-.52 2.2 0 3.3 1.34 3.3 4.02v4.84c0 .853-.42 1.28-1.26 1.28-.827 0-1.24-.427-1.24-1.28v-4.74c0-.747-.127-1.293-.38-1.64-.24-.347-.653-.52-1.24-.52-.653 0-1.167.233-1.54.7-.373.453-.56 1.087-.56 1.9v4.3c0 .853-.413 1.28-1.24 1.28-.84 0-1.26-.427-1.26-1.28v-4.74c0-.747-.127-1.293-.38-1.64-.24-.347-.647-.52-1.22-.52-.653 0-1.167.233-1.54.7-.373.453-.56 1.087-.56 1.9v4.3c0 .853-.42 1.28-1.26 1.28zm17.499 3.6c-.827 0-1.24-.42-1.24-1.26V67.32c0-.84.407-1.26 1.22-1.26.827 0 1.24.42 1.24 1.26v.42c.28-.52.7-.933 1.26-1.24.56-.32 1.2-.48 1.92-.48.853 0 1.6.207 2.24.62.653.413 1.16 1 1.52 1.76.36.747.54 1.647.54 2.7 0 1.04-.18 1.947-.54 2.72-.36.76-.86 1.347-1.5 1.76-.64.413-1.393.62-2.26.62a3.99 3.99 0 0 1-1.88-.44 3.26 3.26 0 0 1-1.26-1.22v3.96c0 .84-.42 1.26-1.26 1.26zm3.7-5.46c.747 0 1.347-.267 1.8-.8.453-.547.68-1.347.68-2.4 0-1.067-.227-1.86-.68-2.38-.453-.533-1.053-.8-1.8-.8-.747 0-1.347.267-1.8.8-.453.52-.68 1.313-.68 2.38 0 1.053.227 1.853.68 2.4.453.533 1.053.8 1.8.8zm10.392 1.9c-2.227 0-3.34-1.247-3.34-3.74V63c0-.84.413-1.26 1.24-1.26.84 0 1.26.42 1.26 1.26v9.34c0 1.2.5 1.8 1.5 1.8h.3l.28-.04c.187-.027.313.027.38.16.067.12.1.373.1.76 0 .333-.067.593-.2.78-.133.187-.353.3-.66.34-.28.04-.567.06-.86.06zm4.287-11.98c-.467 0-.834-.113-1.1-.34-.254-.24-.38-.567-.38-.98 0-.427.126-.753.38-.98.266-.227.633-.34 1.1-.34.986 0 1.48.44 1.48 1.32 0 .88-.494 1.32-1.48 1.32zm0 11.92c-.4 0-.707-.12-.92-.36-.214-.24-.32-.573-.32-1v-7.34c0-.907.413-1.36 1.24-1.36.84 0 1.26.453 1.26 1.36v7.34c0 .427-.107.76-.32 1-.214.24-.527.36-.94.36zm5.777.02c-.84 0-1.26-.427-1.26-1.28V68.1h-.92c-.666 0-1-.313-1-.94s.334-.94 1-.94h.92v-.02c0-1.373.347-2.4 1.04-3.08.694-.693 1.694-1.1 3-1.22l.68-.06c.347-.027.6.047.76.22.16.173.24.387.24.64.014.24-.046.46-.18.66a.773.773 0 0 1-.58.32l-.28.02c-.76.053-1.313.247-1.66.58-.346.333-.52.84-.52 1.52v.42h1.7c.667 0 1 .313 1 .94s-.333.94-1 .94h-1.7v6.78c0 .853-.413 1.28-1.24 1.28zm7.65 3.6c-.453 0-.766-.167-.94-.5-.173-.333-.166-.713.02-1.14l1.14-2.52-3.42-7.88c-.186-.44-.186-.827 0-1.16.187-.333.554-.5 1.1-.5.307 0 .554.073.74.22.187.133.354.393.5.78l2.4 6 2.46-6.02c.147-.373.32-.627.52-.76.2-.147.467-.22.8-.22.427 0 .727.167.9.5.174.333.167.713-.02 1.14l-4.86 11.1c-.173.373-.36.627-.56.76-.2.133-.46.2-.78.2zm15.857-.02c-.306 0-.513-.12-.62-.36-.106-.227-.1-.487.02-.78l1.22-2.76-3.68-8.56c-.133-.307-.14-.573-.02-.8.134-.227.38-.34.74-.34.374 0 .647.213.82.64l3.02 7.38 3.04-7.38c.107-.24.22-.407.34-.5.12-.093.294-.14.52-.14.307 0 .514.113.62.34.107.227.1.487-.02.78l-5.12 11.84c-.106.24-.226.407-.36.5-.12.093-.293.14-.52.14zm12.017-3.56c-.947 0-1.767-.207-2.46-.62a4.26 4.26 0 0 1-1.62-1.74c-.373-.76-.56-1.653-.56-2.68 0-1.027.187-1.913.56-2.66.387-.76.927-1.347 1.62-1.76.693-.413 1.513-.62 2.46-.62.933 0 1.747.207 2.44.62.707.413 1.247 1 1.62 1.76.387.747.58 1.633.58 2.66 0 1.027-.193 1.92-.58 2.68a4.083 4.083 0 0 1-1.62 1.74c-.693.413-1.507.62-2.44.62zm0-1.3c.907 0 1.633-.32 2.18-.96.547-.653.82-1.58.82-2.78 0-1.213-.273-2.14-.82-2.78-.547-.64-1.273-.96-2.18-.96-.92 0-1.653.32-2.2.96-.533.64-.8 1.567-.8 2.78 0 1.2.267 2.127.8 2.78.547.64 1.28.96 2.2.96zm10.513 1.3c-2.333 0-3.5-1.287-3.5-3.86v-5.36c0-.547.267-.82.8-.82.547 0 .82.273.82.82v5.34c0 .867.174 1.507.52 1.92.36.413.92.62 1.68.62.827 0 1.5-.273 2.02-.82.52-.56.78-1.3.78-2.22v-4.84c0-.547.274-.82.82-.82.534 0 .8.273.8.82v8.34c0 .56-.26.84-.78.84-.533 0-.8-.28-.8-.84v-.94a3.276 3.276 0 0 1-1.3 1.36c-.546.307-1.166.46-1.86.46zm8.591-.04c-.546 0-.82-.28-.82-.84v-8.34c0-.547.26-.82.78-.82.534 0 .8.273.8.82v1.06c.267-.613.68-1.08 1.24-1.4.56-.333 1.227-.513 2-.54.427-.04.654.173.68.64.04.467-.2.727-.72.78l-.32.04c-.92.08-1.62.373-2.1.88-.48.493-.72 1.173-.72 2.04v4.84c0 .56-.273.84-.82.84zm14.785.04c-.6 0-1.207-.073-1.82-.22-.6-.16-1.16-.413-1.68-.76-.24-.147-.36-.333-.36-.56a.717.717 0 0 1 .28-.56c.173-.133.393-.133.66 0 .52.32 1.02.547 1.5.68.493.12.98.18 1.46.18.76 0 1.333-.14 1.72-.42.386-.28.58-.66.58-1.14 0-.373-.127-.667-.38-.88-.254-.227-.654-.4-1.2-.52l-1.82-.4c-1.654-.36-2.48-1.213-2.48-2.56 0-.88.346-1.587 1.04-2.12.706-.533 1.626-.8 2.76-.8.573 0 1.126.08 1.66.24a4.072 4.072 0 0 1 1.44.72c.226.16.326.353.3.58a.747.747 0 0 1-.32.54c-.174.12-.387.1-.64-.06a4.42 4.42 0 0 0-1.22-.58c-.414-.133-.82-.2-1.22-.2-.747 0-1.314.147-1.7.44-.387.293-.58.68-.58 1.16 0 .747.493 1.227 1.48 1.44l1.82.38c.853.187 1.5.487 1.94.9.44.4.66.947.66 1.64 0 .893-.354 1.6-1.06 2.12-.707.507-1.647.76-2.82.76zm9.788 0c-2.333 0-3.5-1.287-3.5-3.86v-5.36c0-.547.267-.82.8-.82.547 0 .82.273.82.82v5.34c0 .867.174 1.507.52 1.92.36.413.92.62 1.68.62.827 0 1.5-.273 2.02-.82.52-.56.78-1.3.78-2.22v-4.84c0-.547.274-.82.82-.82.534 0 .8.273.8.82v8.34c0 .56-.26.84-.78.84-.533 0-.8-.28-.8-.84v-.94a3.276 3.276 0 0 1-1.3 1.36c-.546.307-1.166.46-1.86.46zm8.591-.04c-.546 0-.82-.28-.82-.84v-8.34c0-.547.26-.82.78-.82.534 0 .8.273.8.82v1.06c.267-.613.68-1.08 1.24-1.4.56-.333 1.227-.513 2-.54.427-.04.654.173.68.64.04.467-.2.727-.72.78l-.32.04c-.92.08-1.62.373-2.1.88-.48.493-.72 1.173-.72 2.04v4.84c0 .56-.273.84-.82.84zm10.531 3.64c-.707 0-1.4-.087-2.08-.26a5.698 5.698 0 0 1-1.82-.78c-.2-.12-.32-.267-.36-.44-.027-.16 0-.32.08-.48a.717.717 0 0 1 .34-.32.558.558 0 0 1 .5.04c.587.36 1.147.607 1.68.74.533.133 1.06.2 1.58.2 1.92 0 2.88-.987 2.88-2.96V73.8c-.28.613-.72 1.1-1.32 1.46-.587.347-1.26.52-2.02.52-.893 0-1.667-.207-2.32-.62a4.178 4.178 0 0 1-1.52-1.7c-.347-.733-.52-1.58-.52-2.54s.173-1.8.52-2.52c.36-.733.867-1.3 1.52-1.7.653-.4 1.427-.6 2.32-.6.76 0 1.433.167 2.02.5.587.333 1.02.8 1.3 1.4v-1.04c0-.547.267-.82.8-.82s.8.273.8.82v8.34c0 1.493-.373 2.613-1.12 3.36-.733.747-1.82 1.12-3.26 1.12zm-.24-5.32c.933 0 1.673-.32 2.22-.96.547-.64.82-1.5.82-2.58s-.273-1.933-.82-2.56c-.547-.64-1.287-.96-2.22-.96-.92 0-1.653.32-2.2.96-.547.627-.82 1.48-.82 2.56s.273 1.94.82 2.58c.547.64 1.28.96 2.2.96zm12.039 1.72c-1.533 0-2.747-.447-3.64-1.34-.893-.907-1.34-2.133-1.34-3.68 0-1 .2-1.88.6-2.64.4-.773.947-1.367 1.64-1.78.707-.427 1.52-.64 2.44-.64 1.32 0 2.353.427 3.1 1.28.747.84 1.12 2 1.12 3.48 0 .413-.233.62-.7.62h-6.62c.053 1.107.373 1.953.96 2.54.587.573 1.4.86 2.44.86.44 0 .887-.053 1.34-.16a4.25 4.25 0 0 0 1.32-.62c.307-.2.56-.24.76-.12a.6.6 0 0 1 .32.56c.013.24-.12.453-.4.64a4.95 4.95 0 0 1-1.58.74c-.6.173-1.187.26-1.76.26zm-.26-8.88c-.92 0-1.647.287-2.18.86-.533.573-.847 1.327-.94 2.26h5.9c-.04-.987-.3-1.753-.78-2.3-.467-.547-1.133-.82-2-.82zm7.344 8.84c-.546 0-.82-.28-.82-.84v-8.34c0-.547.26-.82.78-.82.534 0 .8.273.8.82v1.06c.267-.613.68-1.08 1.24-1.4.56-.333 1.227-.513 2-.54.427-.04.654.173.68.64.04.467-.2.727-.72.78l-.32.04c-.92.08-1.62.373-2.1.88-.48.493-.72 1.173-.72 2.04v4.84c0 .56-.273.84-.82.84zm9.114 3.6c-.307 0-.513-.12-.62-.36-.107-.227-.1-.487.02-.78l1.22-2.76-3.68-8.56c-.133-.307-.14-.573-.02-.8.133-.227.38-.34.74-.34.373 0 .647.213.82.64l3.02 7.38 3.04-7.38c.107-.24.22-.407.34-.5.12-.093.293-.14.52-.14.307 0 .513.113.62.34.107.227.1.487-.02.78l-5.12 11.84c-.107.24-.227.407-.36.5-.12.093-.293.14-.52.14zm14.13-15.8c-.707 0-1.06-.333-1.06-1 0-.653.353-.98 1.06-.98.72 0 1.08.327 1.08.98 0 .667-.36 1-1.08 1zm-2.72 15.88c-.334.013-.56-.08-.68-.28a.683.683 0 0 1-.08-.64c.08-.213.253-.327.52-.34.733-.04 1.273-.24 1.62-.6.36-.347.54-.9.54-1.66v-9.34c0-.547.273-.82.82-.82.533 0 .8.273.8.82v9.22c0 1.227-.307 2.127-.92 2.7-.6.573-1.474.887-2.62.94zm10.626-3.64c-.947 0-1.767-.207-2.46-.62a4.26 4.26 0 0 1-1.62-1.74c-.373-.76-.56-1.653-.56-2.68 0-1.027.187-1.913.56-2.66.387-.76.927-1.347 1.62-1.76.693-.413 1.513-.62 2.46-.62.933 0 1.747.207 2.44.62.707.413 1.247 1 1.62 1.76.387.747.58 1.633.58 2.66 0 1.027-.193 1.92-.58 2.68a4.083 4.083 0 0 1-1.62 1.74c-.693.413-1.507.62-2.44.62zm0-1.3c.907 0 1.633-.32 2.18-.96.547-.653.82-1.58.82-2.78 0-1.213-.273-2.14-.82-2.78-.547-.64-1.273-.96-2.18-.96-.92 0-1.653.32-2.2.96-.533.64-.8 1.567-.8 2.78 0 1.2.267 2.127.8 2.78.547.64 1.28.96 2.2.96zm10.513 1.3c-2.333 0-3.5-1.287-3.5-3.86v-5.36c0-.547.267-.82.8-.82.547 0 .82.273.82.82v5.34c0 .867.174 1.507.52 1.92.36.413.92.62 1.68.62.827 0 1.5-.273 2.02-.82.52-.56.78-1.3.78-2.22v-4.84c0-.547.274-.82.82-.82.534 0 .8.273.8.82v8.34c0 .56-.26.84-.78.84-.533 0-.8-.28-.8-.84v-.94a3.276 3.276 0 0 1-1.3 1.36c-.546.307-1.166.46-1.86.46zm8.591-.04c-.546 0-.82-.28-.82-.84v-8.34c0-.547.26-.82.78-.82.534 0 .8.273.8.82v1.06c.267-.613.68-1.08 1.24-1.4.56-.333 1.227-.513 2-.54.427-.04.654.173.68.64.04.467-.2.727-.72.78l-.32.04c-.92.08-1.62.373-2.1.88-.48.493-.72 1.173-.72 2.04v4.84c0 .56-.273.84-.82.84zm7.148 0c-.533 0-.8-.28-.8-.84v-8.34c0-.547.26-.82.78-.82.534 0 .8.273.8.82v.98a3.168 3.168 0 0 1 1.36-1.38c.587-.307 1.247-.46 1.98-.46 2.307 0 3.46 1.28 3.46 3.84v5.36c0 .56-.266.84-.8.84-.546 0-.82-.28-.82-.84v-5.26c0-.907-.18-1.567-.54-1.98-.346-.427-.906-.64-1.68-.64-.893 0-1.606.28-2.14.84-.52.547-.78 1.28-.78 2.2v4.84c0 .56-.273.84-.82.84zm14.947.04c-1.533 0-2.746-.447-3.64-1.34-.893-.907-1.34-2.133-1.34-3.68 0-1 .2-1.88.6-2.64.4-.773.947-1.367 1.64-1.78.707-.427 1.52-.64 2.44-.64 1.32 0 2.354.427 3.1 1.28.747.84 1.12 2 1.12 3.48 0 .413-.233.62-.7.62h-6.62c.054 1.107.374 1.953.96 2.54.587.573 1.4.86 2.44.86.44 0 .887-.053 1.34-.16a4.23 4.23 0 0 0 1.32-.62c.307-.2.56-.24.76-.12.214.12.32.307.32.56.014.24-.12.453-.4.64a4.94 4.94 0 0 1-1.58.74c-.6.173-1.186.26-1.76.26zm-.26-8.88c-.92 0-1.646.287-2.18.86-.533.573-.846 1.327-.94 2.26h5.9c-.04-.987-.3-1.753-.78-2.3-.466-.547-1.133-.82-2-.82zm8.568 12.44c-.307 0-.514-.12-.62-.36-.107-.227-.1-.487.02-.78l1.22-2.76-3.68-8.56c-.134-.307-.14-.573-.02-.8.133-.227.38-.34.74-.34.373 0 .646.213.82.64l3.02 7.38 3.04-7.38c.106-.24.22-.407.34-.5.12-.093.293-.14.52-.14.306 0 .513.113.62.34.106.227.1.487-.02.78l-5.12 11.84c-.107.24-.227.407-.36.5-.12.093-.294.14-.52.14z" fill="#050A4E"/></g><defs><clipPath id="a"><rect fill="#fff" width="1440" height="100" x="1440" y="100" rx="20" transform="rotate(-180 1440 100)"/></clipPath></defs></svg>