<svg xmlns="http://www.w3.org/2000/svg" width="34.986" height="37.538" viewBox="0 0 34.986 37.538"> <g id="Group_88748" data-name="Group 88748" transform="translate(-76.344 -107.789)"> <path id="Path_183968" fill="#ffabaf" stroke="#2d2d2d" stroke-linecap="round" stroke-miterlimit="10" stroke-width="0.4px" d="M86.054 122.775c-1.193.942-2.365 1.944-3.487 2.977s-2.184 2.092-3.2 3.186a2.645 2.645 0 0 0-.819 1.911v.028a2.692 2.692 0 0 0 .855 1.915c1.051 1.1 2.164 2.169 3.308 3.173 1.082.95 2.217 1.864 3.374 2.719a1.019 1.019 0 0 0 1.211-1.64c-1.111-.821-2.2-1.7-3.24-2.61-.96-.842-1.894-1.733-2.789-2.649 2.14-.162 4.3-.249 6.434-.246 2.523 0 5.078.12 7.593.352a1.019 1.019 0 0 0 1.109-.921v-.094a1.019 1.019 0 0 0-.926-1.014c-2.578-.237-5.194-.359-7.779-.361-2.079 0-4.177.076-6.261.226.813-.845 1.649-1.679 2.511-2.474 1.083-1 2.216-1.966 3.369-2.876a1.019 1.019 0 1 0-1.264-1.6z" data-name="Path 183968" transform="translate(-2 -4.573)"/> <g id="Group_88747" data-name="Group 88747" transform="translate(89.421 107.989)"> <path id="Path_183969" fill="#c7dcff" stroke="#2d2d2d" stroke-linecap="round" stroke-miterlimit="10" stroke-width="0.4px" d="M106.831 145.127h-.4c-2.112-.009-4.254-.086-6.368-.228a3.905 3.905 0 0 1-1.986-.538 4.02 4.02 0 0 1-1.771-2.344 3.855 3.855 0 0 1-.144-1.058v-1.509-6.763a1.235 1.235 0 0 1 1.235-1.234 1.234 1.234 0 0 1 1.234 1.234v8.273a1.413 1.413 0 0 0 .052.391 1.52 1.52 0 0 0 .652.885 1.4 1.4 0 0 0 .752.193h.097c2.076.141 4.181.217 6.254.225 2.334.014 4.7-.067 7.034-.225h.085A1.461 1.461 0 0 0 114.6 142a1.536 1.536 0 0 0 .431-1.039v-.064c.253-4.9.377-9.88.369-14.792-.007-4.626-.132-9.306-.369-13.91v-.064a1.455 1.455 0 0 0-.43-1.038 1.535 1.535 0 0 0-1.04-.431h-.073c-2.242-.133-4.507-.2-6.774-.2-2.173 0-4.371.069-6.535.2h-.073a1.47 1.47 0 0 0-1.47 1.466v6.613a1.235 1.235 0 1 1-2.47 0v-6.613a3.942 3.942 0 0 1 3.9-3.935c2.2-.13 4.437-.2 6.647-.2h.114c2.255 0 4.534.067 6.777.2a3.979 3.979 0 0 1 2.744 1.154 3.91 3.91 0 0 1 1.155 2.751c.238 4.636.363 9.347.37 14 .008 4.946-.117 9.957-.37 14.9a3.988 3.988 0 0 1-1.155 2.751 3.916 3.916 0 0 1-2.74 1.154c-2.249.147-4.525.224-6.777.224z" data-name="Path 183969" transform="translate(-96.16 -107.989)"/> </g> </g></svg>