<svg width="23" height="20" viewBox="0 0 23 20" fill="none" xmlns="http://www.w3.org/2000/svg">
<path d="M3.354 19.4145C3.354 19.4145 7.01402 19.6325 9.10202 19.6515C11.174 19.6685 14.48 19.4145 14.48 19.4145C14.9712 19.424 15.4479 19.2484 15.8155 18.9225C16.1831 18.5966 16.4146 18.1443 16.464 17.6555C16.464 17.6555 16.871 13.6555 16.871 9.94651C16.871 6.29251 16.464 2.23651 16.464 2.23651C16.3941 1.75633 16.1565 1.31637 15.7934 0.994461C15.4303 0.672549 14.9651 0.489433 14.48 0.477509C14.48 0.477509 10.824 0.296509 9.10202 0.296509C7.31802 0.296509 3.354 0.477509 3.354 0.477509C2.86646 0.48106 2.39674 0.661261 2.03192 0.984707C1.6671 1.30815 1.43192 1.7529 1.37 2.23651C1.37 2.23651 1 6.29251 1 9.94651C1 14.0585 1.37 17.6555 1.37 17.6555C1.44404 18.1339 1.68279 18.5714 2.04501 18.8926C2.40723 19.2137 2.87019 19.3983 3.354 19.4145Z" fill="white" stroke="#2D2D2D" stroke-width="0.4" stroke-miterlimit="10"/>
<path d="M3.67188 12.0375C7.09745 12.2429 10.5326 12.2329 13.9569 12.0075L3.67188 12.0375Z" fill="#007ABB"/>
<path d="M3.67188 12.0375C7.09745 12.2429 10.5326 12.2329 13.9569 12.0075" stroke="#2D2D2D" stroke-width="0.4" stroke-linecap="round" stroke-linejoin="round"/>
<path d="M3.67188 14.9225C7.09742 15.129 10.5326 15.119 13.9569 14.8925L3.67188 14.9225Z" fill="#007ABB"/>
<path d="M3.67188 14.9225C7.09742 15.129 10.5326 15.119 13.9569 14.8925" stroke="#2D2D2D" stroke-width="0.4" stroke-linecap="round" stroke-linejoin="round"/>
<path d="M16.753 8.19751C17.8908 8.19751 19.0031 8.53492 19.9492 9.16707C20.8953 9.79921 21.6326 10.6977 22.0681 11.7489C22.5035 12.8002 22.6174 13.9569 22.3955 15.0729C22.1735 16.1888 21.6256 17.2139 20.821 18.0185C20.0164 18.8231 18.9913 19.371 17.8754 19.593C16.7594 19.8149 15.6026 19.701 14.5514 19.2656C13.5002 18.8302 12.6017 18.0928 11.9696 17.1467C11.3374 16.2006 11 15.0883 11 13.9505C11 12.4247 11.6061 10.9614 12.685 9.88252C13.7639 8.80363 15.2272 8.19751 16.753 8.19751V8.19751Z" fill="#4285F4" stroke="#2D2D2D" stroke-width="0.4"/>
<path d="M16.752 18.2035C19.1009 18.2035 21.005 16.2994 21.005 13.9505C21.005 11.6016 19.1009 9.69751 16.752 9.69751C14.4032 9.69751 12.499 11.6016 12.499 13.9505C12.499 16.2994 14.4032 18.2035 16.752 18.2035Z" fill="white" stroke="#2D2D2D" stroke-width="0.4" stroke-miterlimit="10"/>
<path d="M17.5713 14.1115C17.7714 14.1171 17.9715 14.1121 18.1711 14.0965C18.4132 14.0784 18.6536 14.042 18.8901 13.9875" fill="white"/>
<path d="M17.5713 14.1115C17.7714 14.1171 17.9715 14.1121 18.1711 14.0965C18.4132 14.0784 18.6536 14.042 18.8901 13.9875" stroke="#2D2D2D" stroke-width="0.4" stroke-miterlimit="10" stroke-linecap="round"/>
<path d="M16.7207 13.2685C16.6815 12.7832 16.6718 12.296 16.6917 11.8095C16.7008 11.421 16.7297 11.0331 16.7786 10.6475" fill="white"/>
<path d="M16.7207 13.2685C16.6815 12.7832 16.6718 12.296 16.6917 11.8095C16.7008 11.421 16.7297 11.0331 16.7786 10.6475" stroke="#2D2D2D" stroke-width="0.4" stroke-miterlimit="10" stroke-linecap="round"/>
<path d="M17.5791 14.0095C17.5802 14.043 17.5778 14.0765 17.572 14.1095C17.5531 14.2472 17.4962 14.3768 17.4077 14.4839C17.3193 14.591 17.2027 14.6714 17.0711 14.716C16.9395 14.7606 16.798 14.7676 16.6626 14.7364C16.5272 14.7051 16.4034 14.6367 16.3047 14.539C16.206 14.4412 16.1363 14.3178 16.1038 14.1828C16.0712 14.0477 16.077 13.9062 16.1204 13.7742C16.1637 13.6422 16.2429 13.5249 16.3491 13.4354C16.4554 13.3459 16.5847 13.2878 16.7222 13.2675C16.7582 13.2616 16.7946 13.2593 16.8311 13.2605C16.9294 13.2604 17.0268 13.2797 17.1177 13.3173C17.2086 13.3549 17.2911 13.4101 17.3606 13.4797C17.4301 13.5493 17.4852 13.6319 17.5227 13.7228C17.5602 13.8137 17.5794 13.9112 17.5791 14.0095Z" fill="white" stroke="#2D2D2D" stroke-width="0.4" stroke-miterlimit="10"/>
<path d="M6.28418 6.08348L7.79019 7.70748L11.3902 4.36548" stroke="#4285F4" stroke-linecap="round" stroke-linejoin="round"/>
</svg>
