<svg xmlns="http://www.w3.org/2000/svg" width="29.342" height="23.575" viewBox="0 0 29.342 23.575"> <g id="Group_76174" data-name="Group 76174" transform="translate(-258.108 -47.704)"> <g id="Group_76173" data-name="Group 76173" transform="translate(258.577 48.204)"> <g id="Group_77233" data-name="Group 77233"> <g id="Group_77232" data-name="Group 77232"> <g id="Group_77231" data-name="Group 77231"> <path id="Path_77486" fill="none" stroke="#4285f4" stroke-linecap="round" stroke-miterlimit="10" d="M316.693 1363.294a2.017 2.017 0 0 1-2.015 2.015s-5.469.581-10.706.581a101.091 101.091 0 0 1-10.242-.581 2.016 2.016 0 0 1-2.01-2.015 69.638 69.638 0 0 1-.579-8.51 83.785 83.785 0 0 1 .579-9 2.016 2.016 0 0 1 2.01-2.015s5.24-.454 10.477-.454 10.471.454 10.471.454a2.017 2.017 0 0 1 2.015 2.015s.522 4.623.522 9a77.089 77.089 0 0 1-.522 8.51z" data-name="Path 77486" transform="translate(-291.109 -1343.315)"/> <path id="Path_77487" fill="none" stroke="#4285f4" stroke-miterlimit="10" d="M291.733 1349.485s7.752-.4 13.075-.4 8.3.28 13.133.4" data-name="Path 77487" transform="translate(-291.733 -1344.982)"/> <g id="Group_37062" data-name="Group 37062" transform="translate(4.152 7.962)"> <path id="Path_77488" d="M304.459 1366.137l-.44-.409c-.353-.327-.7-.656-1.057-.983l-1.274-1.185-1.105-1.027c-.179-.167-.355-.337-.537-.5l-.007-.007.176.427v-.345l-.6.6h.7c.242 0 .485.009.727 0a3.184 3.184 0 0 0 1.59-.5 3.231 3.231 0 0 0 1.094-1.185 3.156 3.156 0 0 0-.129-3.2 3.18 3.18 0 0 0-2.683-1.467h-1.609a.628.628 0 0 0-.427.176.606.606 0 0 0 0 .855.627.627 0 0 0 .427.176h1.527a3.377 3.377 0 0 1 .426.022l-.16-.022a2.611 2.611 0 0 1 .659.179l-.144-.06a2.633 2.633 0 0 1 .577.338l-.122-.094a2.676 2.676 0 0 1 .459.459l-.094-.122a2.675 2.675 0 0 1 .338.577l-.06-.144a2.608 2.608 0 0 1 .178.659l-.022-.161a2.579 2.579 0 0 1 0 .67l.022-.161a2.6 2.6 0 0 1-.178.659l.06-.144a2.657 2.657 0 0 1-.338.577l.094-.122a2.672 2.672 0 0 1-.459.459l.122-.094a2.644 2.644 0 0 1-.577.338l.144-.06a2.616 2.616 0 0 1-.659.179l.16-.022a5 5 0 0 1-.647.022h-1a.613.613 0 0 0-.6.6v.337a.635.635 0 0 0 .2.458l.232.215 1.011.94 1.341 1.247 1.208 1.123c.2.186.4.373.6.557l.008.007a.634.634 0 0 0 .427.176.616.616 0 0 0 .428-.176.607.607 0 0 0 .176-.427.619.619 0 0 0-.177-.428z" fill="#4285f4" data-name="Path 77488" transform="translate(-298.701 -1356.36)"/> <path id="Path_77489" d="M299.308 1357.567H305.715a.629.629 0 0 0 .428-.177.606.606 0 0 0 0-.855.627.627 0 0 0-.428-.176H299.311a.63.63 0 0 0-.428.176.606.606 0 0 0 0 .855.629.629 0 0 0 .428.177z" fill="#4285f4" data-name="Path 77489" transform="translate(-298.702 -1356.358)"/> <path id="Path_77490" d="M299.308 1362.772H305.715a.631.631 0 0 0 .428-.176.606.606 0 0 0 0-.855.626.626 0 0 0-.428-.177H299.311a.629.629 0 0 0-.428.177.606.606 0 0 0 0 .855.634.634 0 0 0 .428.176z" fill="#4285f4" data-name="Path 77490" transform="translate(-298.702 -1358.992)"/> </g> <g id="Path_79037" fill="#4285f4" stroke="none" data-name="Path 79037"> <path d="M7.433 5.446h-4.46C1.61 5.446.5 4.336.5 2.973.5 1.61 1.61.5 2.973.5h4.46c1.363 0 2.473 1.11 2.473 2.473 0 1.364-1.11 2.473-2.473 2.473z" transform="translate(18.467 8.616)"/> <path fill="#fff" d="M2.973 1C1.885 1 1 1.885 1 2.973s.885 1.973 1.973 1.973h4.46c1.088 0 1.973-.885 1.973-1.973S8.52 1 7.433 1h-4.46m0-1h4.46c1.642 0 2.973 1.331 2.973 2.973S9.075 5.946 7.433 5.946h-4.46C1.331 5.946 0 4.615 0 2.973S1.331 0 2.973 0z" transform="translate(18.467 8.616)"/> </g> </g> </g> </g> </g> </g></svg>