<svg xmlns="http://www.w3.org/2000/svg" viewBox="0 0 47.657 42.547"> <defs> <linearGradient id="linear-gradient" x1=".5" x2=".5" y2="1" gradientUnits="objectBoundingBox"> <stop offset="0" stop-color="#fff"/> <stop offset="1" stop-color="#d9f88b"/> </linearGradient></defs> <g id="Group_88631" data-name="Group 88631" transform="translate(-1199.731 -430)"> <g id="Group_88630" data-name="Group 88630"> <path id="Path_183893" fill="url(#linear-gradient)" d="M248.736 191.3a50.869 50.869 0 0 1-13.183-13.183 8.3 8.3 0 0 1-2.362-5.729 8.076 8.076 0 0 1 2.362-5.729 69.444 69.444 0 0 1 13.183-13.182 8.3 8.3 0 0 1 5.729-2.363 8.072 8.072 0 0 1 5.729 2.363 79.3 79.3 0 0 1 13.183 13.182 8.3 8.3 0 0 1 2.363 5.729 8.077 8.077 0 0 1-2.363 5.729 78.786 78.786 0 0 1-13.184 13.183 8.347 8.347 0 0 1-3.485 2.049 7.886 7.886 0 0 1-2.244.313 8.371 8.371 0 0 1-2.788-.546 8.951 8.951 0 0 1-2.94-1.816z" data-name="Path 183893" transform="translate(971.648 278.889)"/> <g id="Group_88526" data-name="Group 88526" transform="translate(-12154.771 9848.499)"> <g id="Group_88525" data-name="Group 88525" transform="translate(13354.999 -9416.904)"> <g id="Group_36847" data-name="Group 36847"> <path id="Path_82523" d="M120.376 1225.084c-3.694.172-7.758.284-12.142.284-3.711 0-7.779-.08-12.141-.284a7.109 7.109 0 0 1-2.844-.578c-.729-.356-1.181-.848-1.181-1.388a68.248 68.248 0 0 1-.625-11.981 85.866 85.866 0 0 1 .575-11.242c0-.132.082-.827 1.231-1.388a10.143 10.143 0 0 1 2.944-.731 27.216 27.216 0 0 1 3.447-.187c2.358-.1 5.432-.118 8.827-.113 4.483.006 8.512.062 11.871.3a7.736 7.736 0 0 1 2.881.731 2.009 2.009 0 0 1 1.182 1.388 66.409 66.409 0 0 1 .664 11.539 102.692 102.692 0 0 1-.664 11.684 1.932 1.932 0 0 1-1.241 1.417 7.77 7.77 0 0 1-2.784.549z" fill="#fff" stroke="#2d2d2d" stroke-miterlimit="10" data-name="Path 82523" transform="translate(-91.438 -1186.146)"/> <path id="Path_82524" d="M114.1 1226.413c-2.231.214-4.687.351-7.334.351-2.243 0-4.7-.1-7.335-.351a2.5 2.5 0 0 1-1.718-.715 2.426 2.426 0 0 1-.713-1.718c-.4-4.486-.388-9.124-.379-14.38.009-5.042 0-10.011.379-14.342a2.486 2.486 0 0 1 .714-1.717 2.425 2.425 0 0 1 1.718-.715 48.163 48.163 0 0 1 14.669 0 2.5 2.5 0 0 1 1.718.715 2.42 2.42 0 0 1 .714 1.717c.388 4.386.536 9.217.537 14.342 0 5.178-.146 9.956-.537 14.38a2.438 2.438 0 0 1-2.431 2.433z" fill="#fff" stroke="#2d2d2d" stroke-miterlimit="10" data-name="Path 82524" transform="translate(-90.061 -1187.542)"/> <path id="Rectangle_2626" d="M104.02 1213.744h1.659a1.367 1.367 0 0 1 1.268 1.448s.068.766.068 2.205-.068 3.551-.068 3.551h-4.195s-.083-2.112-.083-3.551.083-2.205.083-2.205a1.367 1.367 0 0 1 1.268-1.448z" fill="#fff" stroke="#2d2d2d" stroke-miterlimit="10" data-name="Rectangle 2626" transform="translate(-88.053 -1181.79)"/> <rect id="Rectangle_2623" width="4.195" height="4.195" fill="#fff" stroke="#2d2d2d" stroke-miterlimit="10" data-name="Rectangle 2623" rx="1" transform="translate(11.008 16.248)"/> <rect id="Rectangle_2624" width="4.195" height="4.195" fill="#4285f4" data-name="Rectangle 2624" rx="1" transform="translate(18.641 16.248)"/> <rect id="Rectangle_2625" width="4.195" height="4.195" fill="#4285f4" data-name="Rectangle 2625" rx="1" transform="translate(11.008 23.777)"/> <rect id="Rectangle_2627" width="4.195" height="4.195" fill="#fff" stroke="#2d2d2d" stroke-miterlimit="10" data-name="Rectangle 2627" rx="1" transform="translate(18.641 23.777)"/> <path id="Union_2" fill="#4285f4" stroke="#fff" d="M103.265 1195.641v-1.3a.564.564 0 0 0-.565-.564h-1.3a1.454 1.454 0 1 1 0-2.909h1.3a.564.564 0 0 0 .565-.564V1189a1.454 1.454 0 1 1 2.908 0v1.305a.564.564 0 0 0 .565.564h1.3a1.454 1.454 0 0 1 0 2.909h-1.306a.564.564 0 0 0-.564.563v1.3a1.454 1.454 0 1 1-2.909 0z" data-name="Union 2" transform="translate(-87.922 -1187.542)"/> </g> </g> </g> </g> </g></svg>